g Env_BikiniBottom_Background_Assets_Boat_Purple
v -1.0303314 0.22419293 -1.7499108
v -1.0646136 0.22419293 -1.7499108
v -1.0646136 0.2556131 -1.8205159
v -1.0303314 0.2556131 -1.8205159
v -1.0303314 0.2556131 -1.8205159
v -1.0646136 0.2556131 -1.8205159
v -1.0646136 0.2444597 -1.8901916
v -1.0303314 0.2444597 -1.8901916
v -1.0303314 0.2444597 -1.8901916
v -1.0646136 0.2444597 -1.8901916
v -1.0646136 0.18160605 -1.9397192
v -1.0303314 0.18160605 -1.9397192
v -1.0303314 0.18160605 -1.9397192
v -1.0646136 0.18160605 -1.9397192
v -1.0646136 0.09943741 -1.9590521
v -1.0303314 0.09943741 -1.9590521
v -1.0303314 0.09943741 -1.9590521
v -1.0646136 0.09943741 -1.9590521
v -1.0646136 0.03152088 -1.9288344
v -1.0303314 0.03152088 -1.9288344
v -1.0303314 0.03152088 -1.9288344
v -1.0646136 0.03152088 -1.9288344
v -1.0646136 -0.006739187 -1.8532351
v -1.0303314 -0.006739187 -1.8532351
v -1.0303314 -0.006739187 -1.8532351
v -1.0646136 -0.006739187 -1.8532351
v -1.0646136 -0.0030717659 -1.7674376
v -1.0303314 -0.0030717659 -1.7674376
v -1.0303314 -0.0030717659 -1.7674376
v -1.0646136 -0.0030717659 -1.7674376
v -1.0646136 0.043094024 -1.7070119
v -1.0303314 0.043094024 -1.7070119
v -1.0303314 0.043094024 -1.7070119
v -1.0646136 0.043094024 -1.7070119
v -1.0646136 0.11332918 -1.6837356
v -1.0303314 0.11332918 -1.6837356
v -1.0303314 0.11332918 -1.6837356
v -1.0646136 0.11332918 -1.6837356
v -1.0646136 0.17663085 -1.6986002
v -1.0303314 0.17663085 -1.6986002
v -1.0303314 0.17663085 -1.6986002
v -1.0646136 0.17663085 -1.6986002
v -1.0646136 0.22419293 -1.7499108
v -1.0303314 0.22419293 -1.7499108
v -0.85521454 0.25331885 0.90687305
v -0.88949674 0.25331885 0.90687305
v -0.88949674 0.20835689 0.8440184
v -0.85521454 0.20835689 0.8440184
v -0.85521454 0.20835689 0.8440184
v -0.88949674 0.20835689 0.8440184
v -0.88949674 0.14263137 0.81834227
v -0.85521454 0.14263137 0.81834227
v -0.85521454 0.14263137 0.81834227
v -0.88949674 0.14263137 0.81834227
v -0.88949674 0.06809029 0.8474489
v -0.85521454 0.06809029 0.8474489
v -0.85521454 0.06809029 0.8474489
v -0.88949674 0.06809029 0.8474489
v -0.88949674 0.009800139 0.90850383
v -0.85521454 0.009800139 0.90850383
v -0.85521454 0.009800139 0.90850383
v -0.88949674 0.009800139 0.90850383
v -0.88949674 0.0014527797 0.9823691
v -0.85521454 0.0014527797 0.9823691
v -0.85521454 0.0014527797 0.9823691
v -0.88949674 0.0014527797 0.9823691
v -0.88949674 0.04725643 1.0536512
v -0.85521454 0.04725643 1.0536512
v -0.85521454 0.04725643 1.0536512
v -0.88949674 0.04725643 1.0536512
v -0.88949674 0.12309068 1.093948
v -0.85521454 0.12309068 1.093948
v -0.85521454 0.12309068 1.093948
v -0.88949674 0.12309068 1.093948
v -0.88949674 0.19857526 1.08475
v -0.85521454 0.19857526 1.08475
v -0.85521454 0.19857526 1.08475
v -0.88949674 0.19857526 1.08475
v -0.88949674 0.25422087 1.035982
v -0.85521454 0.25422087 1.035982
v -0.85521454 0.25422087 1.035982
v -0.88949674 0.25422087 1.035982
v -0.88949674 0.27346855 0.9738726
v -0.85521454 0.27346855 0.9738726
v -0.85521454 0.27346855 0.9738726
v -0.88949674 0.27346855 0.9738726
v -0.88949674 0.25331885 0.90687305
v -0.85521454 0.25331885 0.90687305
v 1.0069596 0.24664234 -1.7066058
v 1.0069596 0.22417426 -1.7805482
v 1.0412418 0.22417426 -1.7805482
v 1.0412418 0.24664234 -1.7066058
v 1.0069596 0.22417426 -1.7805482
v 1.0069596 0.17013107 -1.8259182
v 1.0412418 0.17013107 -1.8259182
v 1.0412418 0.22417426 -1.7805482
v 1.0069596 0.17013107 -1.8259182
v 1.0069596 0.090194635 -1.8222128
v 1.0412418 0.090194635 -1.8222128
v 1.0412418 0.17013107 -1.8259182
v 1.0069596 0.090194635 -1.8222128
v 1.0069596 0.015423402 -1.7830374
v 1.0412418 0.015423402 -1.7830374
v 1.0412418 0.090194635 -1.8222128
v 1.0069596 0.015423402 -1.7830374
v 1.0069596 -0.016136771 -1.7157342
v 1.0412418 -0.016136771 -1.7157342
v 1.0412418 0.015423402 -1.7830374
v 1.0069596 -0.016136771 -1.7157342
v 1.0069596 0.0044301376 -1.6335387
v 1.0412418 0.0044301376 -1.6335387
v 1.0412418 -0.016136771 -1.7157342
v 1.0069596 0.0044301376 -1.6335387
v 1.0069596 0.06336817 -1.5710809
v 1.0412418 0.06336817 -1.5710809
v 1.0412418 0.0044301376 -1.6335387
v 1.0069596 0.06336817 -1.5710809
v 1.0069596 0.13782354 -1.5556238
v 1.0412418 0.13782354 -1.5556238
v 1.0412418 0.06336817 -1.5710809
v 1.0069596 0.13782354 -1.5556238
v 1.0069596 0.2061552 -1.584006
v 1.0412418 0.2061552 -1.584006
v 1.0412418 0.13782354 -1.5556238
v 1.0069596 0.2061552 -1.584006
v 1.0069596 0.24427731 -1.6366819
v 1.0412418 0.24427731 -1.6366819
v 1.0412418 0.2061552 -1.584006
v 1.0069596 0.24427731 -1.6366819
v 1.0069596 0.24664234 -1.7066058
v 1.0412418 0.24664234 -1.7066058
v 1.0412418 0.24427731 -1.6366819
v 0.77780426 0.23774669 1.1219647
v 0.77780426 0.26999024 1.051732
v 0.81208616 0.26999024 1.051732
v 0.81208616 0.23774669 1.1219647
v 0.77780426 0.26999024 1.051732
v 0.77780426 0.25965223 0.9819305
v 0.81208616 0.25965223 0.9819305
v 0.81208616 0.26999024 1.051732
v 0.77780426 0.25965223 0.9819305
v 0.77780426 0.19738194 0.93167144
v 0.81208616 0.19738194 0.93167144
v 0.81208616 0.25965223 0.9819305
v 0.77780426 0.19738194 0.93167144
v 0.77780426 0.115444966 0.91137904
v 0.81208616 0.115444966 0.91137904
v 0.81208616 0.19738194 0.93167144
v 0.77780426 0.115444966 0.91137904
v 0.77780426 0.0471798 0.9408006
v 0.81208616 0.0471798 0.9408006
v 0.81208616 0.115444966 0.91137904
v 0.77780426 0.0471798 0.9408006
v 0.77780426 0.008038428 1.0159476
v 0.81208616 0.008038428 1.0159476
v 0.81208616 0.0471798 0.9408006
v 0.77780426 0.008038428 1.0159476
v 0.77780426 0.010702457 1.1017822
v 0.81208616 0.010702457 1.1017822
v 0.81208616 0.008038428 1.0159476
v 0.77780426 0.010702457 1.1017822
v 0.77780426 0.056158587 1.1627433
v 0.81208616 0.056158587 1.1627433
v 0.81208616 0.010702457 1.1017822
v 0.77780426 0.056158587 1.1627433
v 0.77780426 0.12611677 1.1868393
v 0.81208616 0.12611677 1.1868393
v 0.81208616 0.056158587 1.1627433
v 0.77780426 0.12611677 1.1868393
v 0.77780426 0.18958797 1.1727159
v 0.81208616 0.18958797 1.1727159
v 0.81208616 0.12611677 1.1868393
v 0.77780426 0.18958797 1.1727159
v 0.77780426 0.23774669 1.1219647
v 0.81208616 0.23774669 1.1219647
v 0.81208616 0.18958797 1.1727159
v 0.03728668 0.893347 -2.2399151
v 0.03987274 1.4288663 -2.240621
v 0.12693268 1.4288663 -2.2766824
v 0.094216004 0.8806132 -2.2640786
v 0.06436584 0.27110857 -2.2392094
v 0.16299346 1.4288663 -2.3637419
v 0.093977965 0.27110857 -2.2514753
v 0.06436584 0.22381197 -2.2810872
v 0.117796935 0.8753388 -2.3224146
v 0.12693268 1.4288663 -2.4508011
v 0.1062442 0.27110857 -2.2810872
v 0.094216004 0.8806132 -2.3807502
v 0.03987274 1.4288663 -2.4868627
v 0.093977965 0.27110857 -2.3106992
v 0.03728668 0.893347 -2.404914
v -0.047186583 1.4288663 -2.4508011
v 0.06436584 0.27110857 -2.3229651
v -0.019642334 0.90608066 -2.3807502
v -0.08324768 1.4288663 -2.3637419
v 0.03475372 0.27110857 -2.3106992
v -0.04322296 0.91135514 -2.3224146
v -0.047186583 1.4288663 -2.2766824
v 0.022488097 0.27110857 -2.2810872
v -0.019642334 0.90608066 -2.2640786
v 0.03987274 1.4288663 -2.240621
v 0.03728668 0.893347 -2.2399151
v 0.03475372 0.27110857 -2.2514753
v 0.06436584 0.27110857 -2.2392094
v 0.0570401 1.661407 -1.7664955
v 0.054179993 1.7578241 -1.7909029
v 0.15630585 1.7627914 -1.8182232
v 0.16303314 1.6658425 -1.7970818
v 0.25963867 1.7704964 -1.8805932
v 0.1637268 1.5402154 -1.7916876
v 0.05733673 1.536096 -1.7571176
v 0.05504791 1.4433043 -1.7669052
v 0.15821838 1.4463196 -1.8042175
v 0.27065948 1.5461257 -1.8628072
v 0.26054475 1.4496108 -1.8775806
v 0.27037108 1.6719458 -1.8638757
v 0.36820403 1.800088 -2.0577273
v 0.38555542 1.5634477 -2.0502017
v 0.36483335 1.4517436 -2.0633729
v 0.38675934 1.6891904 -2.0481758
v 0.43588257 1.8289688 -2.252463
v 0.4591464 1.5715202 -2.255156
v 0.43080747 1.4375645 -2.2592504
v 0.4607373 1.6971971 -2.2529848
v 0.4291278 1.8346152 -2.3684313
v 0.45387664 1.5642834 -2.376201
v 0.42476806 1.4200566 -2.3720744
v 0.45525756 1.691317 -2.3750865
v 0.34430754 1.8315028 -2.4494045
v 0.37343597 1.5394131 -2.465568
v 0.34254974 1.3786938 -2.4506395
v 0.37406218 1.6682962 -2.465265
v 0.13885163 1.8124937 -2.5099
v 0.15725097 1.4925671 -2.5446444
v 0.13915314 1.3160493 -2.5097327
v 0.15744689 1.6195433 -2.5452342
v -0.102322996 1.7945564 -2.5005088
v -0.11690673 1.4834024 -2.5347202
v -0.1021405 1.3181694 -2.5001113
v -0.11725158 1.6095191 -2.5355227
v -0.22545013 1.7961237 -2.4705827
v -0.25034788 1.5017178 -2.4930856
v -0.22669952 1.3467414 -2.4711173
v -0.25031403 1.629484 -2.4932053
v -0.30879852 1.7963095 -2.4000208
v -0.333378 1.5291939 -2.4110024
v -0.30938202 1.3948716 -2.401193
v -0.33338073 1.6573863 -2.4106855
v -0.3499304 1.7893168 -2.2895021
v -0.37046722 1.5520041 -2.2909825
v -0.3505319 1.4421885 -2.2908752
v -0.3703421 1.6785123 -2.2904634
v -0.3261978 1.7801213 -2.1722295
v -0.3455655 1.551999 -2.1641672
v -0.32712525 1.4504632 -2.1698074
v -0.3452957 1.6776767 -2.1650393
v -0.2181778 1.7629265 -2.0003161
v -0.23080993 1.5392072 -1.972071
v -0.21955231 1.4447687 -1.9825827
v -0.23038422 1.6648403 -1.9788162
v -0.06957977 1.7544987 -1.8542858
v -0.07281921 1.532927 -1.8167589
v -0.07111755 1.4412419 -1.827143
v -0.07219513 1.6581895 -1.827291
v 0.054179993 1.7578241 -1.7909029
v 0.0570401 1.661407 -1.7664955
v 0.05733673 1.536096 -1.7571176
v 0.05504791 1.4433043 -1.7669052
v -0.99346983 0.7638769 -2.2550552
v -1.104018 1.4455203 -2.2550552
v -1.1675314 1.4713355 -1.3717248
v -1.0284283 0.70131236 -0.95877194
v -1.1874425 1.442944 -0.8787188
v -0.92038876 0.31389856 -2.2550552
v -1.0382059 1.0064595 0.17668205
v -1.1532129 1.4255701 0.4729043
v -0.95371276 0.7117364 0.011190893
v -1.032915 1.0909818 0.4729042
v -0.9310751 0.35884684 -0.83605933
v -0.9867242 1.1937928 1.0450605
v -0.99166286 1.4409553 1.0750401
v -0.8408081 1.2430373 1.4645212
v -0.83009917 1.4409553 1.4782276
v -0.5648843 1.2164736 1.880093
v -0.620712 1.4204991 1.8800933
v -0.35463163 1.4409552 2.0813768
v -0.7695569 0.9991439 1.4771205
v -0.8852273 0.86907166 1.0650309
v -0.32650483 1.2753822 2.092078
v -0 1.4409553 2.2550552
v -0.48937193 1.0103987 1.880093
v -0.9269598 0.766225 0.47290412
v -0.64944243 0.7562132 1.4798391
v -0.22102752 1.147581 2.0765276
v -0.71190095 0.5512126 1.0612417
v -0.74493957 0.43749976 0.47290388
v -0.3223941 0.89494956 1.880093
v 0.22102721 1.147581 2.0765276
v -0.45196196 0.5964632 1.48365
v -0.84308076 0.37456456 -0.15467939
v -0.46933317 0.38138288 1.0641863
v -0.5360745 0.26560685 0.47290382
v 0.5360745 0.26560685 0.47290382
v -0.69706696 0.19656532 -0.54894114
v 0.6970666 0.19656532 -0.54894114
v 0.92038876 0.31389856 -2.2550552
v 0.46933317 0.38138288 1.0641863
v 0.45196196 0.5964632 1.48365
v 0.3223944 0.89494956 1.880093
v 0.48937163 1.0103987 1.880093
v 0.64944273 0.7562132 1.4798391
v 0.32650483 1.2753822 2.092078
v 0.35463133 1.4409552 2.0813768
v 0.5648843 1.2164736 1.880093
v 0.6207117 1.4409552 1.8800933
v 0.7119006 0.5512126 1.0612417
v 0.8408078 1.2430373 1.4645212
v 0.83009917 1.4409553 1.4782276
v 0.7695569 0.9991439 1.4771205
v 0.9867242 1.1937928 1.0450605
v 0.99166286 1.4080096 1.0750401
v 0.885227 0.86907166 1.0650309
v 0.74493986 0.43749976 0.47290388
v 1.032915 1.0909818 0.4729042
v 1.1532129 1.4409547 0.4729043
v 0.9269598 0.766225 0.47290412
v 0.8430804 0.37456456 -0.15467939
v 0.95371306 0.7117364 0.011190893
v 1.0382061 1.0064595 0.17668205
v 1.1874425 1.4804814 -0.8787188
v 0.9310751 0.35884684 -0.83605933
v 1.0284287 0.70131236 -0.95877194
v 1.1675317 1.445928 -1.3717248
v 0.99346983 0.7638769 -2.2550552
v 1.1040176 1.4455203 -2.2550552
v -0.99346983 0.7638769 -2.2550552
v -0.92038876 0.31389856 -2.2550552
v 0.92038876 0.31389856 -2.2550552
v 0.99346983 0.7638769 -2.2550552
v -1.104018 1.4455203 -2.2550552
v 1.1040176 1.4455203 -2.2550552
v 1.1675317 1.445928 -1.3717248
v -1.104018 1.4455203 -2.2550552
v 1.1040176 1.4455203 -2.2550552
v -1.1675314 1.4713355 -1.3717248
v 0.82285035 1.4439386 -1.0430542
v 1.1874425 1.4804814 -0.8787188
v -0.8230319 1.4439386 -1.0430542
v -1.1874425 1.442944 -0.8787188
v -1.1874425 1.442944 -0.8787188
v -0.82212734 1.443276 -0.70646894
v -1.1532129 1.4255701 0.4729043
v -0.8189575 1.4357166 0.4729043
v -0.8075903 1.4362259 0.530816
v -0.99166286 1.4409553 1.0750401
v 0.99166286 1.4080096 1.0750401
v 0.8075903 1.4409548 0.530816
v 1.1532129 1.4409547 0.4729043
v 0.8189572 1.4409547 0.4729043
v 0.83009917 1.4409553 1.4782276
v -0.83009917 1.4409553 1.4782276
v 0.6207117 1.4409552 1.8800933
v -0.620712 1.4204991 1.8800933
v -0.35463163 1.4409552 2.0813768
v 0.35463133 1.4409552 2.0813768
v -0 1.4409553 2.2550552
v 0.82285035 1.4439386 -1.0430542
v 1.1874425 1.4804814 -0.8787188
v 0.8219861 1.443276 -0.70646894
v 0.8189572 1.4409547 0.4729043
v 1.1532129 1.4409547 0.4729043
v -0.69852537 1.9263214 0.3632115
v -0.7083569 1.9263214 0.3052998
v -0.30250975 1.9948772 0.3052998
v -0.30250975 1.9946635 0.3632115
v -0 2.0177295 0.3052998
v -0 2.0176942 0.3632115
v 0.30250975 1.988216 0.3632115
v 0.30250975 1.9882156 0.3052998
v 0.69852537 1.9420168 0.3632115
v 0.7083569 1.942419 0.3052998
v -0.8075903 1.4362259 0.530816
v -0.69852537 1.9263214 0.3632115
v -0.30250975 1.9946635 0.3632115
v -0 2.0176942 0.3632115
v 0.8075903 1.4409548 0.530816
v 0.30250975 1.988216 0.3632115
v 0.69852537 1.9420168 0.3632115
v 0.8075903 1.4409548 0.530816
v 0.69852537 1.9420168 0.3632115
v 0.7083569 1.942419 0.3052998
v 0.8189572 1.4409547 0.4729043
v -0.8189575 1.4357166 0.4729043
v -0.7083569 1.9263214 0.3052998
v -0.69852537 1.9263214 0.3632115
v -0.8075903 1.4362259 0.530816
v -0.70541316 1.0092152 -0.7076821
v -0.82212734 1.443276 -0.70646894
v -0.828421 1.5968707 -0.70091176
v 0.70528686 1.0092152 -0.707682
v 0.8219861 1.443276 -0.70646894
v 0.8282443 1.5968707 -0.70091176
v -0.82996213 1.7030607 -0.73000115
v 0.8297754 1.7030609 -0.73000103
v 0.83249843 1.7682039 -0.7946841
v -0.83268857 1.7682039 -0.79468435
v 0.83647156 1.7981287 -0.8876554
v -0.8366623 1.7981286 -0.8876557
v 0.82869536 1.7875694 -0.9818015
v -0.82888335 1.7875694 -0.9818015
v 0.8231894 1.7045768 -1.0281187
v -0.82337433 1.7045768 -1.028119
v -0.8230319 1.6150198 -1.0548619
v 0.82285035 1.6150198 -1.0548619
v 0.82285035 1.4439386 -1.0430542
v -0.8230319 1.4439386 -1.0430542
v -0.8189575 1.4357166 0.4729043
v -0.67628294 0.91094565 0.36013004
v 0.67628294 0.91094565 0.36013016
v 0.8189572 1.4409547 0.4729043
v -0.8189575 1.4357166 0.4729043
v -0.82212734 1.443276 -0.70646894
v -0.70541316 1.0092152 -0.7076821
v -0.71681947 1.0558571 -0.23401539
v -0.67783874 0.91094434 -0.18848358
v -0.67628294 0.91094565 0.36013004
v 0.8189572 1.4409547 0.4729043
v 0.67628294 0.91094565 0.36013016
v 0.6777698 0.91094434 -0.18848346
v 0.7167468 1.0558571 -0.23401529
v 0.70528686 1.0092152 -0.707682
v 0.8219861 1.443276 -0.70646894
v 0.6777698 0.91094434 -0.18848346
v 0.67628294 0.91094565 0.36013016
v -0.67628294 0.91094565 0.36013004
v -0.67783874 0.91094434 -0.18848358
v -0.70541316 1.0092152 -0.7076821
v 0.70528686 1.0092152 -0.707682
v 0.7167468 1.0558571 -0.23401529
v -0.71681947 1.0558571 -0.23401539
v -0.67783874 0.91094434 -0.18848358
v 0.6777698 0.91094434 -0.18848346
v 0.83249843 1.7682039 -0.7946841
v 0.83647156 1.7981287 -0.8876554
v 0.82869536 1.7875694 -0.9818015
v 0.8297754 1.7030609 -0.73000103
v 0.8282443 1.5968707 -0.70091176
v 0.8231894 1.7045768 -1.0281187
v 0.82285035 1.6150198 -1.0548619
v 0.8219861 1.443276 -0.70646894
v 0.82285035 1.4439386 -1.0430542
v -0.83268857 1.7682039 -0.79468435
v -0.82888335 1.7875694 -0.9818015
v -0.8366623 1.7981286 -0.8876557
v -0.82996213 1.7030607 -0.73000115
v -0.82337433 1.7045768 -1.028119
v -0.828421 1.5968707 -0.70091176
v -0.8230319 1.6150198 -1.0548619
v -0.8230319 1.4439386 -1.0430542
v -0.82212734 1.443276 -0.70646894
v 0.8189572 1.4409547 0.4729043
v 0.7083569 1.942419 0.3052998
v 0.30250975 1.9882156 0.3052998
v -0 2.0177295 0.3052998
v -0.8189575 1.4357166 0.4729043
v -0.30250975 1.9948772 0.3052998
v -0.7083569 1.9263214 0.3052998
v 0.061548766 0.24117662 -2.375621
v 0.06425842 0.26842418 -2.3951716
v 0.042814635 0.27307275 -2.3696656
v 0.061548766 0.3008171 -2.3864906
v 0.047200315 0.24927756 -2.3462865
v 0.07312683 0.22818153 -2.3424418
v 0.047200315 0.30358577 -2.3561845
v 0.07312683 0.32468176 -2.360029
v 0.042814635 0.27979055 -2.3328056
v 0.061548766 0.25204623 -2.3159804
v 0.061548766 0.3116867 -2.3268502
v 0.09186035 0.23744433 -2.3160741
v 0.11059387 0.22818153 -2.3424418
v 0.06425842 0.28443912 -2.3072994
v 0.09186035 0.32531676 -2.332089
v 0.11059387 0.32468176 -2.360029
v 0.09186035 0.26679546 -2.2996264
v 0.09186035 0.30365527 -2.3063443
v 0.12217132 0.25204623 -2.3159804
v 0.12217132 0.3116867 -2.3268502
v 0.11946167 0.28443912 -2.3072994
v 0.14090484 0.27979055 -2.3328056
v 0.13652039 0.24927756 -2.3462865
v 0.13652039 0.30358577 -2.3561845
v 0.14090484 0.27307275 -2.3696656
v 0.12217132 0.24117662 -2.375621
v 0.12217132 0.3008171 -2.3864906
v 0.09186035 0.2275465 -2.3703823
v 0.07312683 0.22818153 -2.3424418
v 0.061548766 0.24117662 -2.375621
v 0.09186035 0.24920805 -2.3961267
v 0.06425842 0.26842418 -2.3951716
v 0.11946167 0.26842418 -2.3951716
v 0.09186035 0.28606787 -2.4028444
v 0.061548766 0.3008171 -2.3864906
v 0.09186035 0.315419 -2.3863971
v 0.07312683 0.32468176 -2.360029
v 0.81208616 0.12611677 1.1868393
v 0.81208616 0.18958797 1.1727159
v 0.81208616 0.13807888 1.052015
v 0.81208616 0.056158587 1.1627433
v 0.81208616 0.23774669 1.1219647
v 0.81208616 0.010702457 1.1017822
v 0.81208616 0.26999024 1.051732
v 0.81208616 0.008038428 1.0159476
v 0.81208616 0.25965223 0.9819305
v 0.81208616 0.0471798 0.9408006
v 0.81208616 0.19738194 0.93167144
v 0.81208616 0.115444966 0.91137904
v 0.77780426 0.18958797 1.1727159
v 0.77780426 0.12611677 1.1868393
v 0.77780426 0.13807888 1.052015
v 0.77780426 0.23774669 1.1219647
v 0.77780426 0.056158587 1.1627433
v 0.77780426 0.26999024 1.051732
v 0.77780426 0.010702457 1.1017822
v 0.77780426 0.25965223 0.9819305
v 0.77780426 0.008038428 1.0159476
v 0.77780426 0.19738194 0.93167144
v 0.77780426 0.0471798 0.9408006
v 0.77780426 0.115444966 0.91137904
v 1.0412418 0.2061552 -1.584006
v 1.0412418 0.24427731 -1.6366819
v 1.0412418 0.12566015 -1.6928234
v 1.0412418 0.13782354 -1.5556238
v 1.0412418 0.24664234 -1.7066058
v 1.0412418 0.06336817 -1.5710809
v 1.0412418 0.22417426 -1.7805482
v 1.0412418 0.0044301376 -1.6335387
v 1.0412418 0.17013107 -1.8259182
v 1.0412418 -0.016136771 -1.7157342
v 1.0412418 0.090194635 -1.8222128
v 1.0412418 0.015423402 -1.7830374
v 1.0069596 0.24427731 -1.6366819
v 1.0069596 0.2061552 -1.584006
v 1.0069596 0.12566015 -1.6928234
v 1.0069596 0.24664234 -1.7066058
v 1.0069596 0.13782354 -1.5556238
v 1.0069596 0.22417426 -1.7805482
v 1.0069596 0.06336817 -1.5710809
v 1.0069596 0.17013107 -1.8259182
v 1.0069596 0.0044301376 -1.6335387
v 1.0069596 0.090194635 -1.8222128
v 1.0069596 -0.016136771 -1.7157342
v 1.0069596 0.015423402 -1.7830374
v -0.88949674 0.25422087 1.035982
v -0.88949674 0.14311998 0.95866925
v -0.88949674 0.27346855 0.9738726
v -0.88949674 0.19857526 1.08475
v -0.88949674 0.25331885 0.90687305
v -0.88949674 0.12309068 1.093948
v -0.88949674 0.20835689 0.8440184
v -0.88949674 0.04725643 1.0536512
v -0.88949674 0.14263137 0.81834227
v -0.88949674 0.0014527797 0.9823691
v -0.88949674 0.06809029 0.8474489
v -0.88949674 0.009800139 0.90850383
v -0.85521454 0.27346855 0.9738726
v -0.85521454 0.14311998 0.95866925
v -0.85521454 0.25422087 1.035982
v -0.85521454 0.25331885 0.90687305
v -0.85521454 0.19857526 1.08475
v -0.85521454 0.20835689 0.8440184
v -0.85521454 0.12309068 1.093948
v -0.85521454 0.14263137 0.81834227
v -0.85521454 0.04725643 1.0536512
v -0.85521454 0.06809029 0.8474489
v -0.85521454 0.0014527797 0.9823691
v -0.85521454 0.009800139 0.90850383
v -1.0646136 0.11332918 -1.6837356
v -1.0646136 0.12371411 -1.8186907
v -1.0646136 0.17663085 -1.6986002
v -1.0646136 0.043094024 -1.7070119
v -1.0646136 0.22419293 -1.7499108
v -1.0646136 -0.0030717659 -1.7674376
v -1.0646136 0.2556131 -1.8205159
v -1.0646136 -0.006739187 -1.8532351
v -1.0646136 0.2444597 -1.8901916
v -1.0646136 0.03152088 -1.9288344
v -1.0646136 0.18160605 -1.9397192
v -1.0646136 0.09943741 -1.9590521
v -1.0303314 0.17663085 -1.6986002
v -1.0303314 0.12371411 -1.8186907
v -1.0303314 0.11332918 -1.6837356
v -1.0303314 0.22419293 -1.7499108
v -1.0303314 0.043094024 -1.7070119
v -1.0303314 0.2556131 -1.8205159
v -1.0303314 -0.0030717659 -1.7674376
v -1.0303314 0.2444597 -1.8901916
v -1.0303314 -0.006739187 -1.8532351
v -1.0303314 0.18160605 -1.9397192
v -1.0303314 0.03152088 -1.9288344
v -1.0303314 0.09943741 -1.9590521
v 0.046312254 0.165433 -2.289195
v -0.053099364 0.2201676 -2.294873
v 0.080666505 0.2257749 -2.308442
v -0.00045684812 0.11597681 -2.2719758
v 0.08069519 0.28666312 -2.3239172
v -0.037116393 0.09822626 -2.264816
v 0.041023865 0.3304536 -2.3307831
v -0.093282774 0.1124851 -2.2645953
v -0.027800292 0.35096052 -2.3285608
v -0.13039672 0.16038097 -2.2735603
v -0.09863494 0.35662952 -2.322805
v -0.15615326 0.23793991 -2.2902656
v -0.13645324 0.3445185 -2.3168643
v -0.15536103 0.30995196 -2.3073716
v 0.23029052 0.31782943 -2.377509
v 0.2235318 0.20506696 -2.389747
v 0.1662503 0.31811133 -2.344485
v 0.2899356 0.30150467 -2.4107614
v 0.11580261 0.28835905 -2.3217535
v 0.3186044 0.27850053 -2.4297135
v 0.09558777 0.23255815 -2.3177314
v 0.32804382 0.22299777 -2.4434373
v 0.10648681 0.16287316 -2.3314223
v 0.30286407 0.16746032 -2.4376607
v 0.1301831 0.0987335 -2.3516061
v 0.24920471 0.10718931 -2.4165428
v 0.15471038 0.071960926 -2.368748
v 0.19010009 0.07256952 -2.3884873
v -0.0063790893 0.37007853 -2.350307
v 0.073254086 0.44352898 -2.3845768
v 0.044976804 0.3234144 -2.3308947
v -0.04371124 0.4247036 -2.3738055
v 0.10539581 0.3074741 -2.3243916
v -0.051913146 0.4615006 -2.3908052
v 0.1587558 0.33156577 -2.334923
v -0.023295287 0.5069283 -2.4126077
v 0.19627625 0.38787928 -2.3590732
v 0.033660278 0.5272427 -2.4223642
v 0.21966553 0.4496324 -2.385949
v 0.11701111 0.5301683 -2.4237692
v 0.21733154 0.48604056 -2.4027176
v 0.18801697 0.511313 -2.414736
v -0.2181778 1.7629265 -2.0003161
v 0.012240295 1.7937552 -2.2348244
v -0.06957977 1.7544987 -1.8542858
v -0.3261978 1.7801213 -2.1722295
v 0.054179993 1.7578241 -1.7909029
v -0.3499304 1.7893168 -2.2895021
v 0.15630585 1.7627914 -1.8182232
v -0.30879852 1.7963095 -2.4000208
v 0.25963867 1.7704964 -1.8805932
v -0.22545013 1.7961237 -2.4705827
v 0.36820403 1.800088 -2.0577273
v -0.102322996 1.7945564 -2.5005088
v 0.43588257 1.8289688 -2.252463
v 0.13885163 1.8124937 -2.5099
v 0.4291278 1.8346152 -2.3684313
v 0.34430754 1.8315028 -2.4494045
v -0.07111755 1.4412419 -1.827143
v 0.012240295 1.4176364 -2.2348244
v -0.21955231 1.4447687 -1.9825827
v 0.05504791 1.4433043 -1.7669052
v -0.32712525 1.4504632 -2.1698074
v 0.15821838 1.4463196 -1.8042175
v -0.3505319 1.4421885 -2.2908752
v 0.26054475 1.4496108 -1.8775806
v -0.30938202 1.3948716 -2.401193
v 0.36483335 1.4517436 -2.0633729
v -0.22669952 1.3467414 -2.4711173
v 0.43080747 1.4375645 -2.2592504
v -0.1021405 1.3181694 -2.5001113
v 0.42476806 1.4200566 -2.3720744
v 0.13915314 1.3160493 -2.5097327
v 0.34254974 1.3786938 -2.4506395
v 0.044515073 0.15876192 -2.317396
v 0.046312254 0.165433 -2.289195
v 0.080666505 0.2257749 -2.308442
v -0.002555542 0.1081859 -2.3049107
v -0.00045684812 0.11597681 -2.2719758
v 0.0792041 0.2203462 -2.331391
v 0.08069519 0.28666312 -2.3239172
v -0.055008847 0.21307947 -2.3248374
v -0.039290465 0.09015669 -2.2989287
v -0.037116393 0.09822626 -2.264816
v 0.07936157 0.28171197 -2.3448477
v -0.09546203 0.104395285 -2.298794
v 0.03957428 0.32507187 -2.353534
v 0.041023865 0.3304536 -2.3307831
v -0.093282774 0.1124851 -2.2645953
v -0.027800292 0.35096052 -2.3285608
v -0.13257599 0.15229116 -2.307759
v -0.13039672 0.16038097 -2.2735603
v -0.029573059 0.34437934 -2.356382
v -0.09863494 0.35662952 -2.322805
v -0.15833251 0.22985008 -2.3244643
v -0.15615326 0.23793991 -2.2902656
v -0.10072601 0.34886774 -2.3556168
v -0.13645324 0.3445185 -2.3168643
v -0.15753937 0.30186677 -2.3415506
v -0.15536103 0.30995196 -2.3073716
v -0.13862304 0.33646438 -2.3509119
v 0.21615173 0.32163176 -2.4025822
v 0.23029052 0.31782943 -2.377509
v 0.1662503 0.31811133 -2.344485
v 0.27342317 0.3059453 -2.4400437
v 0.2899356 0.30150467 -2.4107614
v 0.15474425 0.3212056 -2.364889
v 0.11580261 0.28835905 -2.3217535
v 0.20850952 0.20910698 -2.416388
v 0.30150175 0.28309995 -2.4600434
v 0.3186044 0.27850053 -2.4297135
v 0.10530914 0.29118115 -2.3403625
v 0.31089842 0.22760865 -2.4738433
v 0.08418182 0.23562567 -2.3379586
v 0.09558777 0.23255815 -2.3177314
v 0.32804382 0.22299777 -2.4434373
v 0.10648681 0.16287316 -2.3314223
v 0.28571808 0.17207126 -2.4680665
v 0.30286407 0.16746032 -2.4376607
v 0.09253845 0.16662423 -2.3561575
v 0.1301831 0.0987335 -2.3516061
v 0.23205902 0.11180028 -2.4469483
v 0.24920471 0.10718931 -2.4165428
v 0.113732904 0.10315745 -2.3807788
v 0.15471038 0.071960926 -2.368748
v 0.17296447 0.07717772 -2.4188757
v 0.19010009 0.07256952 -2.3884873
v 0.13764007 0.07655157 -2.3990197
v -0.0063790893 0.3575083 -2.3764796
v -0.0063790893 0.37007853 -2.350307
v 0.044976804 0.3234144 -2.3308947
v -0.04371124 0.41002318 -2.404372
v -0.04371124 0.4247036 -2.3738055
v 0.044976804 0.31318521 -2.3521934
v 0.10539581 0.3074741 -2.3243916
v 0.073254086 0.4301727 -2.4123857
v -0.051913146 0.44629523 -2.4224648
v -0.051913146 0.4615006 -2.3908052
v 0.10539581 0.2981447 -2.343817
v -0.023295287 0.4916848 -2.444347
v 0.1587558 0.32142517 -2.3560374
v 0.1587558 0.33156577 -2.334923
v -0.023295287 0.5069283 -2.4126077
v 0.19627625 0.38787928 -2.3590732
v 0.033660278 0.5119991 -2.4541035
v 0.033660278 0.5272427 -2.4223642
v 0.19627625 0.37547848 -2.3848934
v 0.21966553 0.4496324 -2.385949
v 0.11701111 0.51492476 -2.4555085
v 0.11701111 0.5301683 -2.4237692
v 0.21966614 0.43500686 -2.4164011
v 0.21733154 0.48604056 -2.4027176
v 0.18801726 0.49607816 -2.4464571
v 0.18801697 0.511313 -2.414736
v 0.21733154 0.4708641 -2.4343169
vt 0.96972656 0.8881836
vt 0.96972656 0.8881836
vt 0.96972656 0.8881836
vt 0.96972656 0.8881836
vt 0.96972656 0.8881836
vt 0.96972656 0.8881836
vt 0.96972656 0.8881836
vt 0.96972656 0.8881836
vt 0.96972656 0.8881836
vt 0.96972656 0.8881836
vt 0.96972656 0.8881836
vt 0.96972656 0.8881836
vt 0.96972656 0.8881836
vt 0.96972656 0.8881836
vt 0.96972656 0.8881836
vt 0.96972656 0.8881836
vt 0.96972656 0.8881836
vt 0.96972656 0.8881836
vt 0.96972656 0.8881836
vt 0.96972656 0.8881836
vt 0.96972656 0.8881836
vt 0.96972656 0.8881836
vt 0.96972656 0.8881836
vt 0.96972656 0.8881836
vt 0.96972656 0.8881836
vt 0.96972656 0.8881836
vt 0.96972656 0.8881836
vt 0.96972656 0.8881836
vt 0.96972656 0.8881836
vt 0.96972656 0.8881836
vt 0.96972656 0.8881836
vt 0.96972656 0.8881836
vt 0.96972656 0.8881836
vt 0.96972656 0.8881836
vt 0.96972656 0.8881836
vt 0.96972656 0.8881836
vt 0.96972656 0.8881836
vt 0.96972656 0.8881836
vt 0.96972656 0.8881836
vt 0.96972656 0.8881836
vt 0.96972656 0.8881836
vt 0.96972656 0.8881836
vt 0.96972656 0.8881836
vt 0.96972656 0.8881836
vt 0.96972656 0.8881836
vt 0.96972656 0.8881836
vt 0.96972656 0.8881836
vt 0.96972656 0.8881836
vt 0.96972656 0.8881836
vt 0.96972656 0.8881836
vt 0.96972656 0.8881836
vt 0.96972656 0.8881836
vt 0.96972656 0.8881836
vt 0.96972656 0.8881836
vt 0.96972656 0.8881836
vt 0.96972656 0.8881836
vt 0.96972656 0.8881836
vt 0.96972656 0.8881836
vt 0.96972656 0.8881836
vt 0.96972656 0.8881836
vt 0.96972656 0.8881836
vt 0.96972656 0.8881836
vt 0.96972656 0.8881836
vt 0.96972656 0.8881836
vt 0.96972656 0.8881836
vt 0.96972656 0.8881836
vt 0.96972656 0.8881836
vt 0.96972656 0.8881836
vt 0.96972656 0.8881836
vt 0.96972656 0.8881836
vt 0.96972656 0.8881836
vt 0.96972656 0.8881836
vt 0.96972656 0.8881836
vt 0.96972656 0.8881836
vt 0.96972656 0.8881836
vt 0.96972656 0.8881836
vt 0.96972656 0.8881836
vt 0.96972656 0.8881836
vt 0.96972656 0.8881836
vt 0.96972656 0.8881836
vt 0.96972656 0.8881836
vt 0.96972656 0.8881836
vt 0.96972656 0.8881836
vt 0.96972656 0.8881836
vt 0.96972656 0.8881836
vt 0.96972656 0.8881836
vt 0.96972656 0.8881836
vt 0.96972656 0.8881836
vt 0.96972656 0.8881836
vt 0.96972656 0.8881836
vt 0.96972656 0.8881836
vt 0.96972656 0.8881836
vt 0.96972656 0.8881836
vt 0.96972656 0.8881836
vt 0.96972656 0.8881836
vt 0.96972656 0.8881836
vt 0.96972656 0.8881836
vt 0.96972656 0.8881836
vt 0.96972656 0.8881836
vt 0.96972656 0.8881836
vt 0.96972656 0.8881836
vt 0.96972656 0.8881836
vt 0.96972656 0.8881836
vt 0.96972656 0.8881836
vt 0.96972656 0.8881836
vt 0.96972656 0.8881836
vt 0.96972656 0.8881836
vt 0.96972656 0.8881836
vt 0.96972656 0.8881836
vt 0.96972656 0.8881836
vt 0.96972656 0.8881836
vt 0.96972656 0.8881836
vt 0.96972656 0.8881836
vt 0.96972656 0.8881836
vt 0.96972656 0.8881836
vt 0.96972656 0.8881836
vt 0.96972656 0.8881836
vt 0.96972656 0.8881836
vt 0.96972656 0.8881836
vt 0.96972656 0.8881836
vt 0.96972656 0.8881836
vt 0.96972656 0.8881836
vt 0.96972656 0.8881836
vt 0.96972656 0.8881836
vt 0.96972656 0.8881836
vt 0.96972656 0.8881836
vt 0.96972656 0.8881836
vt 0.96972656 0.8881836
vt 0.96972656 0.8881836
vt 0.96972656 0.8881836
vt 0.96972656 0.8881836
vt 0.96972656 0.8881836
vt 0.96972656 0.8881836
vt 0.96972656 0.8881836
vt 0.96972656 0.8881836
vt 0.96972656 0.8881836
vt 0.96972656 0.8881836
vt 0.96972656 0.8881836
vt 0.96972656 0.8881836
vt 0.96972656 0.8881836
vt 0.96972656 0.8881836
vt 0.96972656 0.8881836
vt 0.96972656 0.8881836
vt 0.96972656 0.8881836
vt 0.96972656 0.8881836
vt 0.96972656 0.8881836
vt 0.96972656 0.8881836
vt 0.96972656 0.8881836
vt 0.96972656 0.8881836
vt 0.96972656 0.8881836
vt 0.96972656 0.8881836
vt 0.96972656 0.8881836
vt 0.96972656 0.8881836
vt 0.96972656 0.8881836
vt 0.96972656 0.8881836
vt 0.96972656 0.8881836
vt 0.96972656 0.8881836
vt 0.96972656 0.8881836
vt 0.96972656 0.8881836
vt 0.96972656 0.8881836
vt 0.96972656 0.8881836
vt 0.96972656 0.8881836
vt 0.96972656 0.8881836
vt 0.96972656 0.8881836
vt 0.96972656 0.8881836
vt 0.96972656 0.8881836
vt 0.96972656 0.8881836
vt 0.96972656 0.8881836
vt 0.96972656 0.8881836
vt 0.96972656 0.8881836
vt 0.96972656 0.8881836
vt 0.96972656 0.8881836
vt 0.96972656 0.8881836
vt 0.96972656 0.8881836
vt 0.96972656 0.8881836
vt 0.96972656 0.8881836
vt 0.8901367 0.5571289
vt 0.8666992 0.64208984
vt 0.88183594 0.6459961
vt 0.89990234 0.5571289
vt 0.9121094 0.46533203
vt 0.89746094 0.64990234
vt 0.9165039 0.46704102
vt 0.9291992 0.45996094
vt 0.90966797 0.55859375
vt 0.91308594 0.65234375
vt 0.92089844 0.46826172
vt 0.9194336 0.56103516
vt 0.92871094 0.6533203
vt 0.9248047 0.46923828
vt 0.9291992 0.56396484
vt 0.9448242 0.65234375
vt 0.92871094 0.46972656
vt 0.9394531 0.5654297
vt 0.9604492 0.64990234
vt 0.93310547 0.46948242
vt 0.94921875 0.5644531
vt 0.9760742 0.6459961
vt 0.9375 0.46875
vt 0.9584961 0.56152344
vt 0.9916992 0.64208984
vt 0.96777344 0.5571289
vt 0.94140625 0.46728516
vt 0.9458008 0.46533203
vt 0.5517578 0.57128906
vt 0.5517578 0.5854492
vt 0.5673828 0.5859375
vt 0.56689453 0.57177734
vt 0.5839844 0.5864258
vt 0.5673828 0.5546875
vt 0.5517578 0.55322266
vt 0.5517578 0.5385742
vt 0.56884766 0.5410156
vt 0.58447266 0.5566406
vt 0.5864258 0.54345703
vt 0.5839844 0.5732422
vt 0.6113281 0.5908203
vt 0.6123047 0.5605469
vt 0.61376953 0.5463867
vt 0.6113281 0.5761719
vt 0.6376953 0.59375
vt 0.6381836 0.5629883
vt 0.63964844 0.546875
vt 0.6376953 0.5776367
vt 0.65234375 0.5942383
vt 0.65185547 0.5629883
vt 0.6538086 0.54589844
vt 0.6513672 0.57714844
vt 0.6665039 0.59375
vt 0.66503906 0.5600586
vt 0.66748047 0.5415039
vt 0.66503906 0.57470703
vt 0.69189453 0.5917969
vt 0.69091797 0.5551758
vt 0.6923828 0.53466797
vt 0.69091797 0.56933594
vt 0.72021484 0.59033203
vt 0.7211914 0.5541992
vt 0.72021484 0.53466797
vt 0.7216797 0.5683594
vt 0.73583984 0.59033203
vt 0.7368164 0.55615234
vt 0.73535156 0.53808594
vt 0.7373047 0.5703125
vt 0.7495117 0.5908203
vt 0.75 0.55908203
vt 0.74853516 0.54296875
vt 0.7504883 0.57373047
vt 0.76464844 0.59033203
vt 0.76464844 0.56103516
vt 0.7636719 0.5473633
vt 0.7651367 0.5761719
vt 0.78125 0.58984375
vt 0.78027344 0.5600586
vt 0.77978516 0.546875
vt 0.7807617 0.5761719
vt 0.80908203 0.58740234
vt 0.8095703 0.5566406
vt 0.80810547 0.54345703
vt 0.8100586 0.57373047
vt 0.8388672 0.5854492
vt 0.83984375 0.55322266
vt 0.8383789 0.54003906
vt 0.84033203 0.57128906
vt 0.86035156 0.5854492
vt 0.86035156 0.57128906
vt 0.86035156 0.55322266
vt 0.86035156 0.5385742
vt 0.066345215 0.10247803
vt 0.0059432983 0.10247803
vt 0.007610321 0.18103027
vt 0.07501221 0.21142578
vt 0.0110321045 0.22583008
vt 0.105895996 0.10247803
vt 0.06591797 0.31030273
vt 0.032714844 0.34472656
vt 0.08831787 0.2915039
vt 0.06536865 0.33666992
vt 0.10479736 0.21887207
vt 0.07537842 0.38720703
vt 0.05606079 0.40039062
vt 0.09436035 0.4230957
vt 0.08129883 0.43676758
vt 0.1270752 0.45043945
vt 0.11431885 0.46704102
vt 0.1451416 0.48266602
vt 0.11315918 0.41186523
vt 0.10241699 0.37695312
vt 0.1529541 0.46875
vt 0.18347168 0.49169922
vt 0.13891602 0.43823242
vt 0.09320068 0.32885742
vt 0.13195801 0.40185547
vt 0.16442871 0.45947266
vt 0.12817383 0.36694336
vt 0.12213135 0.32202148
vt 0.15673828 0.4333496
vt 0.20214844 0.45922852
vt 0.14990234 0.39624023
vt 0.11364746 0.27319336
vt 0.14892578 0.36254883
vt 0.14245605 0.31884766
vt 0.22314453 0.31860352
vt 0.12805176 0.24108887
vt 0.23718262 0.24084473
vt 0.2590332 0.10247803
vt 0.21704102 0.3623047
vt 0.2163086 0.3959961
vt 0.2097168 0.43310547
vt 0.22753906 0.43774414
vt 0.23425293 0.4013672
vt 0.21362305 0.46875
vt 0.22167969 0.48242188
vt 0.23962402 0.4501953
vt 0.2524414 0.46655273
vt 0.23779297 0.36645508
vt 0.27197266 0.42236328
vt 0.2854004 0.43603516
vt 0.25317383 0.41137695
vt 0.29077148 0.3864746
vt 0.3100586 0.39941406
vt 0.26367188 0.37646484
vt 0.24353027 0.3215332
vt 0.30029297 0.33569336
vt 0.3330078 0.34375
vt 0.27246094 0.32836914
vt 0.25170898 0.27294922
vt 0.2770996 0.29101562
vt 0.29956055 0.3095703
vt 0.35375977 0.22485352
vt 0.2602539 0.21850586
vt 0.29003906 0.21081543
vt 0.35668945 0.18017578
vt 0.2980957 0.10247803
vt 0.35766602 0.10247803
vt 0.09991455 0.06506348
vt 0.105895996 0.10247803
vt 0.2590332 0.10247803
vt 0.26513672 0.06512451
vt 0.09075928 0.008392334
vt 0.27416992 0.008491516
vt 0.010978699 0.60546875
vt 0.2541504 0.51123047
vt 0.01777649 0.51123047
vt 0.26098633 0.60546875
vt 0.047790527 0.640625
vt 0.0093307495 0.65771484
vt 0.2241211 0.640625
vt 0.26245117 0.65771484
vt 0.26245117 0.65771484
vt 0.2241211 0.67626953
vt 0.26000977 0.7998047
vt 0.2241211 0.80029297
vt 0.22351074 0.80615234
vt 0.24401855 0.8652344
vt 0.027862549 0.8652344
vt 0.048614502 0.80615234
vt 0.012031555 0.7998047
vt 0.047790527 0.80029297
vt 0.04547119 0.9091797
vt 0.22644043 0.9091797
vt 0.067993164 0.9526367
vt 0.20397949 0.9526367
vt 0.17456055 0.9746094
vt 0.09729004 0.9746094
vt 0.13598633 0.99365234
vt 0.047790527 0.640625
vt 0.0093307495 0.65771484
vt 0.047790527 0.67626953
vt 0.047790527 0.80029297
vt 0.012031555 0.7998047
vt 0.80859375 0.27294922
vt 0.8076172 0.27978516
vt 0.8564453 0.27978516
vt 0.85058594 0.27294922
vt 0.8955078 0.27978516
vt 0.89208984 0.27294922
vt 0.93359375 0.27294922
vt 0.9345703 0.27978516
vt 0.97558594 0.27294922
vt 0.9765625 0.27978516
vt 0.7963867 0.20666504
vt 0.80859375 0.27294922
vt 0.85058594 0.27294922
vt 0.89208984 0.27294922
vt 0.9873047 0.20666504
vt 0.93359375 0.27294922
vt 0.97558594 0.27294922
vt 0.9873047 0.20666504
vt 0.97558594 0.27294922
vt 0.9819336 0.27612305
vt 0.99365234 0.20678711
vt 0.79052734 0.20678711
vt 0.8022461 0.2758789
vt 0.80859375 0.27294922
vt 0.7963867 0.20666504
vt 0.7192383 0.38012695
vt 0.70654297 0.42626953
vt 0.7060547 0.44262695
vt 0.86865234 0.38012695
vt 0.88134766 0.42626953
vt 0.88183594 0.44262695
vt 0.7060547 0.4543457
vt 0.88183594 0.4543457
vt 0.8823242 0.4638672
vt 0.7055664 0.4638672
vt 0.8828125 0.47436523
vt 0.7050781 0.47436523
vt 0.88183594 0.484375
vt 0.7060547 0.484375
vt 0.88134766 0.49438477
vt 0.70654297 0.49438477
vt 0.70654297 0.50439453
vt 0.88134766 0.50439453
vt 0.88134766 0.52246094
vt 0.70654297 0.52246094
vt 0.99121094 0.6640625
vt 0.9321289 0.6796875
vt 0.9321289 0.82714844
vt 0.99121094 0.84228516
vt 0.94384766 0.88720703
vt 0.8154297 0.88671875
vt 0.81591797 0.83740234
vt 0.8671875 0.8432617
vt 0.8725586 0.82714844
vt 0.9321289 0.82714844
vt 0.94384766 0.88720703
vt 0.9321289 0.82714844
vt 0.8725586 0.82714844
vt 0.8671875 0.8432617
vt 0.81591797 0.83740234
vt 0.8154297 0.88671875
vt 0.8725586 0.82714844
vt 0.9321289 0.82714844
vt 0.9321289 0.6796875
vt 0.8725586 0.6796875
vt 0.7939453 0.37036133
vt 0.9584961 0.37036133
vt 0.95947266 0.31469727
vt 0.79248047 0.3149414
vt 0.796875 0.29711914
vt 0.9550781 0.296875
vt 0.2006836 0.79589844
vt 0.18261719 0.8017578
vt 0.16442871 0.7993164
vt 0.21313477 0.7832031
vt 0.21887207 0.7626953
vt 0.15539551 0.7832031
vt 0.15026855 0.7661133
vt 0.21789551 0.73291016
vt 0.15270996 0.73291016
vt 0.2006836 0.79589844
vt 0.16442871 0.7993164
vt 0.18261719 0.8017578
vt 0.21313477 0.7832031
vt 0.15539551 0.7832031
vt 0.21887207 0.7626953
vt 0.15026855 0.7661133
vt 0.15270996 0.73291016
vt 0.21789551 0.73291016
vt 0.8173828 0.91503906
vt 0.82910156 0.9760742
vt 0.86865234 0.9760742
vt 0.9067383 0.9760742
vt 0.99609375 0.91503906
vt 0.9448242 0.9760742
vt 0.9838867 0.9760742
vt 0.28149414 0.59228516
vt 0.29736328 0.5966797
vt 0.29736328 0.58496094
vt 0.31323242 0.59228516
vt 0.28320312 0.578125
vt 0.26635742 0.578125
vt 0.31152344 0.578125
vt 0.32836914 0.578125
vt 0.29736328 0.57177734
vt 0.28149414 0.5644531
vt 0.31323242 0.5644531
vt 0.27124023 0.55029297
vt 0.26635742 0.52246094
vt 0.29736328 0.5600586
vt 0.32348633 0.55029297
vt 0.32836914 0.52246094
vt 0.2878418 0.55029297
vt 0.30664062 0.55029297
vt 0.28149414 0.5361328
vt 0.31323242 0.5361328
vt 0.29736328 0.54052734
vt 0.29736328 0.5288086
vt 0.28320312 0.52246094
vt 0.31152344 0.52246094
vt 0.29736328 0.515625
vt 0.28149414 0.5083008
vt 0.31323242 0.5083008
vt 0.27124023 0.49414062
vt 0.26635742 0.46606445
vt 0.28149414 0.4802246
vt 0.2878418 0.49414062
vt 0.29736328 0.48413086
vt 0.29736328 0.50390625
vt 0.30664062 0.49414062
vt 0.31323242 0.4802246
vt 0.32348633 0.49414062
vt 0.32836914 0.46606445
vt 0.96972656 0.8881836
vt 0.96972656 0.8881836
vt 0.96972656 0.8881836
vt 0.96972656 0.8881836
vt 0.96972656 0.8881836
vt 0.96972656 0.8881836
vt 0.96972656 0.8881836
vt 0.96972656 0.8881836
vt 0.96972656 0.8881836
vt 0.96972656 0.8881836
vt 0.96972656 0.8881836
vt 0.96972656 0.8881836
vt 0.96972656 0.8881836
vt 0.96972656 0.8881836
vt 0.96972656 0.8881836
vt 0.96972656 0.8881836
vt 0.96972656 0.8881836
vt 0.96972656 0.8881836
vt 0.96972656 0.8881836
vt 0.96972656 0.8881836
vt 0.96972656 0.8881836
vt 0.96972656 0.8881836
vt 0.96972656 0.8881836
vt 0.96972656 0.8881836
vt 0.96972656 0.8881836
vt 0.96972656 0.8881836
vt 0.96972656 0.8881836
vt 0.96972656 0.8881836
vt 0.96972656 0.8881836
vt 0.96972656 0.8881836
vt 0.96972656 0.8881836
vt 0.96972656 0.8881836
vt 0.96972656 0.8881836
vt 0.96972656 0.8881836
vt 0.96972656 0.8881836
vt 0.96972656 0.8881836
vt 0.96972656 0.8881836
vt 0.96972656 0.8881836
vt 0.96972656 0.8881836
vt 0.96972656 0.8881836
vt 0.96972656 0.8881836
vt 0.96972656 0.8881836
vt 0.96972656 0.8881836
vt 0.96972656 0.8881836
vt 0.96972656 0.8881836
vt 0.96972656 0.8881836
vt 0.96972656 0.8881836
vt 0.96972656 0.8881836
vt 0.96972656 0.8881836
vt 0.96972656 0.8881836
vt 0.96972656 0.8881836
vt 0.96972656 0.8881836
vt 0.96972656 0.8881836
vt 0.96972656 0.8881836
vt 0.96972656 0.8881836
vt 0.96972656 0.8881836
vt 0.96972656 0.8881836
vt 0.96972656 0.8881836
vt 0.96972656 0.8881836
vt 0.96972656 0.8881836
vt 0.96972656 0.8881836
vt 0.96972656 0.8881836
vt 0.96972656 0.8881836
vt 0.96972656 0.8881836
vt 0.96972656 0.8881836
vt 0.96972656 0.8881836
vt 0.96972656 0.8881836
vt 0.96972656 0.8881836
vt 0.96972656 0.8881836
vt 0.96972656 0.8881836
vt 0.96972656 0.8881836
vt 0.96972656 0.8881836
vt 0.96972656 0.8881836
vt 0.96972656 0.8881836
vt 0.96972656 0.8881836
vt 0.96972656 0.8881836
vt 0.96972656 0.8881836
vt 0.96972656 0.8881836
vt 0.96972656 0.8881836
vt 0.96972656 0.8881836
vt 0.96972656 0.8881836
vt 0.96972656 0.8881836
vt 0.96972656 0.8881836
vt 0.96972656 0.8881836
vt 0.96972656 0.8881836
vt 0.96972656 0.8881836
vt 0.96972656 0.8881836
vt 0.96972656 0.8881836
vt 0.96972656 0.8881836
vt 0.96972656 0.8881836
vt 0.96972656 0.8881836
vt 0.96972656 0.8881836
vt 0.96972656 0.8881836
vt 0.96972656 0.8881836
vt 0.96972656 0.8881836
vt 0.96972656 0.8881836
vt 0.05569458 0.70458984
vt 0.06781006 0.7133789
vt 0.061187744 0.69677734
vt 0.052215576 0.7128906
vt 0.068603516 0.6933594
vt 0.05206299 0.7182617
vt 0.076049805 0.6953125
vt 0.056884766 0.7241211
vt 0.08227539 0.7026367
vt 0.0647583 0.7260742
vt 0.08679199 0.7109375
vt 0.07556152 0.7246094
vt 0.087402344 0.7158203
vt 0.084228516 0.72021484
vt 0.05569458 0.70458984
vt 0.06781006 0.7133789
vt 0.061187744 0.69677734
vt 0.052215576 0.7128906
vt 0.068603516 0.6933594
vt 0.05206299 0.7182617
vt 0.076049805 0.6953125
vt 0.056884766 0.7241211
vt 0.08227539 0.7026367
vt 0.0647583 0.7260742
vt 0.08679199 0.7109375
vt 0.07556152 0.7246094
vt 0.087402344 0.7158203
vt 0.084228516 0.72021484
vt 0.05569458 0.70458984
vt 0.06781006 0.7133789
vt 0.061187744 0.69677734
vt 0.052215576 0.7128906
vt 0.068603516 0.6933594
vt 0.05206299 0.7182617
vt 0.076049805 0.6953125
vt 0.056884766 0.7241211
vt 0.08227539 0.7026367
vt 0.0647583 0.7260742
vt 0.08679199 0.7109375
vt 0.07556152 0.7246094
vt 0.087402344 0.7158203
vt 0.084228516 0.72021484
vt 0.19970703 0.7050781
vt 0.17382812 0.6767578
vt 0.18200684 0.7211914
vt 0.21276855 0.6850586
vt 0.16748047 0.72802734
vt 0.21594238 0.671875
vt 0.15576172 0.7246094
vt 0.21166992 0.6586914
vt 0.14404297 0.7167969
vt 0.20227051 0.6503906
vt 0.13195801 0.6958008
vt 0.18811035 0.6464844
vt 0.12475586 0.67285156
vt 0.16015625 0.64453125
vt 0.12597656 0.65966797
vt 0.1361084 0.6503906
vt 0.07897949 0.64746094
vt 0.097351074 0.6694336
vt 0.093688965 0.6459961
vt 0.0703125 0.6513672
vt 0.1083374 0.6479492
vt 0.06781006 0.6586914
vt 0.11584473 0.65185547
vt 0.06726074 0.6669922
vt 0.12036133 0.6591797
vt 0.072631836 0.68066406
vt 0.121032715 0.66748047
vt 0.08013916 0.6928711
vt 0.11755371 0.67578125
vt 0.08648682 0.6972656
vt 0.10772705 0.68896484
vt 0.09472656 0.69677734
vt 0.121276855 0.7475586
vt 0.12719727 0.7426758
vt 0.11077881 0.7285156
vt 0.12988281 0.76416016
vt 0.1381836 0.76123047
vt 0.107666016 0.7338867
vt 0.092285156 0.7236328
vt 0.09893799 0.7675781
vt 0.13122559 0.77490234
vt 0.13964844 0.77685547
vt 0.09246826 0.7285156
vt 0.12286377 0.7871094
vt 0.07849121 0.7348633
vt 0.07489014 0.73046875
vt 0.12805176 0.7939453
vt 0.061706543 0.74609375
vt 0.107666016 0.7919922
vt 0.108947754 0.80126953
vt 0.067993164 0.75
vt 0.052703857 0.7651367
vt 0.08605957 0.7915039
vt 0.084350586 0.80029297
vt 0.06100464 0.76708984
vt 0.05316162 0.78027344
vt 0.0680542 0.78515625
vt 0.06323242 0.79248047
vt 0.06097412 0.77734375
vt 0.121276855 0.7475586
vt 0.12719727 0.7426758
vt 0.11077881 0.7285156
vt 0.12988281 0.76416016
vt 0.1381836 0.76123047
vt 0.107666016 0.7338867
vt 0.092285156 0.7236328
vt 0.09893799 0.7675781
vt 0.13122559 0.77490234
vt 0.13964844 0.77685547
vt 0.09246826 0.7285156
vt 0.12286377 0.7871094
vt 0.07849121 0.7348633
vt 0.07489014 0.73046875
vt 0.12805176 0.7939453
vt 0.061706543 0.74609375
vt 0.107666016 0.7919922
vt 0.108947754 0.80126953
vt 0.067993164 0.75
vt 0.052703857 0.7651367
vt 0.08605957 0.7915039
vt 0.084350586 0.80029297
vt 0.06100464 0.76708984
vt 0.05316162 0.78027344
vt 0.0680542 0.78515625
vt 0.06323242 0.79248047
vt 0.06097412 0.77734375
vt 0.121276855 0.7475586
vt 0.12719727 0.7426758
vt 0.11077881 0.7285156
vt 0.12988281 0.76416016
vt 0.1381836 0.76123047
vt 0.107666016 0.7338867
vt 0.092285156 0.7236328
vt 0.09893799 0.7675781
vt 0.13122559 0.77490234
vt 0.13964844 0.77685547
vt 0.09246826 0.7285156
vt 0.12286377 0.7871094
vt 0.07849121 0.7348633
vt 0.07489014 0.73046875
vt 0.12805176 0.7939453
vt 0.061706543 0.74609375
vt 0.107666016 0.7919922
vt 0.108947754 0.80126953
vt 0.067993164 0.75
vt 0.052703857 0.7651367
vt 0.08605957 0.7915039
vt 0.084350586 0.80029297
vt 0.06100464 0.76708984
vt 0.05316162 0.78027344
vt 0.0680542 0.78515625
vt 0.06323242 0.79248047
vt 0.06097412 0.77734375
vn -0 0.9135742 0.40649414
vn -0 0.9135742 0.40649414
vn -0 0.9135742 0.40649414
vn -0 0.9135742 0.40649414
vn -0 0.9873047 -0.15808105
vn -0 0.9873047 -0.15808105
vn -0 0.9873047 -0.15808105
vn -0 0.9873047 -0.15808105
vn -0 0.6191406 -0.78564453
vn -0 0.6191406 -0.78564453
vn -0 0.6191406 -0.78564453
vn -0 0.6191406 -0.78564453
vn -0 0.2290039 -0.9736328
vn -0 0.2290039 -0.9736328
vn -0 0.2290039 -0.9736328
vn -0 0.2290039 -0.9736328
vn -0 -0.40649414 -0.9135742
vn -0 -0.40649414 -0.9135742
vn -0 -0.40649414 -0.9135742
vn -0 -0.40649414 -0.9135742
vn -0 -0.89208984 -0.45166016
vn -0 -0.89208984 -0.45166016
vn -0 -0.89208984 -0.45166016
vn -0 -0.89208984 -0.45166016
vn -0 -0.99902344 0.04269409
vn -0 -0.99902344 0.04269409
vn -0 -0.99902344 0.04269409
vn -0 -0.99902344 0.04269409
vn -0 -0.7944336 0.6069336
vn -0 -0.7944336 0.6069336
vn -0 -0.7944336 0.6069336
vn -0 -0.7944336 0.6069336
vn -0 -0.31469727 0.94921875
vn -0 -0.31469727 0.94921875
vn -0 -0.31469727 0.94921875
vn -0 -0.31469727 0.94921875
vn -0 0.2286377 0.9736328
vn -0 0.2286377 0.9736328
vn -0 0.2286377 0.9736328
vn -0 0.2286377 0.9736328
vn -0 0.73339844 0.6796875
vn -0 0.73339844 0.6796875
vn -0 0.73339844 0.6796875
vn -0 0.73339844 0.6796875
vn -0 0.81347656 -0.58203125
vn -0 0.81347656 -0.58203125
vn -0 0.81347656 -0.58203125
vn -0 0.81347656 -0.58203125
vn -0 0.36376953 -0.9316406
vn -0 0.36376953 -0.9316406
vn -0 0.36376953 -0.9316406
vn -0 0.36376953 -0.9316406
vn -0 -0.36376953 -0.9316406
vn -0 -0.36376953 -0.9316406
vn -0 -0.36376953 -0.9316406
vn -0 -0.36376953 -0.9316406
vn -0 -0.72314453 -0.6904297
vn -0 -0.72314453 -0.6904297
vn -0 -0.72314453 -0.6904297
vn -0 -0.72314453 -0.6904297
vn -0 -0.99365234 -0.11230469
vn -0 -0.99365234 -0.11230469
vn -0 -0.99365234 -0.11230469
vn -0 -0.99365234 -0.11230469
vn -0 -0.8413086 0.54052734
vn -0 -0.8413086 0.54052734
vn -0 -0.8413086 0.54052734
vn -0 -0.8413086 0.54052734
vn -0 -0.46923828 0.8833008
vn -0 -0.46923828 0.8833008
vn -0 -0.46923828 0.8833008
vn -0 -0.46923828 0.8833008
vn -0 0.12097168 0.9926758
vn -0 0.12097168 0.9926758
vn -0 0.12097168 0.9926758
vn -0 0.12097168 0.9926758
vn -0 0.6591797 0.7519531
vn -0 0.6591797 0.7519531
vn -0 0.6591797 0.7519531
vn -0 0.6591797 0.7519531
vn -0 0.9550781 0.29589844
vn -0 0.9550781 0.29589844
vn -0 0.9550781 0.29589844
vn -0 0.9550781 0.29589844
vn -0 0.95751953 -0.28808594
vn -0 0.95751953 -0.28808594
vn -0 0.95751953 -0.28808594
vn -0 0.95751953 -0.28808594
vn -0 0.95703125 -0.29077148
vn -0 0.95703125 -0.29077148
vn -0 0.95703125 -0.29077148
vn -0 0.95703125 -0.29077148
vn -0 0.6430664 -0.7661133
vn -0 0.6430664 -0.7661133
vn -0 0.6430664 -0.7661133
vn -0 0.6430664 -0.7661133
vn -0 -0.046295166 -0.99902344
vn -0 -0.046295166 -0.99902344
vn -0 -0.046295166 -0.99902344
vn -0 -0.046295166 -0.99902344
vn -0 -0.46411133 -0.8857422
vn -0 -0.46411133 -0.8857422
vn -0 -0.46411133 -0.8857422
vn -0 -0.46411133 -0.8857422
vn -0 -0.90527344 -0.42456055
vn -0 -0.90527344 -0.42456055
vn -0 -0.90527344 -0.42456055
vn -0 -0.90527344 -0.42456055
vn -0 -0.97021484 0.24279785
vn -0 -0.97021484 0.24279785
vn -0 -0.97021484 0.24279785
vn -0 -0.97021484 0.24279785
vn -0 -0.72753906 0.68652344
vn -0 -0.72753906 0.68652344
vn -0 -0.72753906 0.68652344
vn -0 -0.72753906 0.68652344
vn -0 -0.20324707 0.9790039
vn -0 -0.20324707 0.9790039
vn -0 -0.20324707 0.9790039
vn -0 -0.20324707 0.9790039
vn -0 0.38354492 0.92333984
vn -0 0.38354492 0.92333984
vn -0 0.38354492 0.92333984
vn -0 0.38354492 0.92333984
vn -0 0.8100586 0.5864258
vn -0 0.8100586 0.5864258
vn -0 0.8100586 0.5864258
vn -0 0.8100586 0.5864258
vn -0 0.9995117 0.033813477
vn -0 0.9995117 0.033813477
vn -0 0.9995117 0.033813477
vn -0 0.9995117 0.033813477
vn -0 0.9086914 0.41723633
vn -0 0.9086914 0.41723633
vn -0 0.9086914 0.41723633
vn -0 0.9086914 0.41723633
vn -0 0.9892578 -0.14648438
vn -0 0.9892578 -0.14648438
vn -0 0.9892578 -0.14648438
vn -0 0.9892578 -0.14648438
vn -0 0.6279297 -0.7783203
vn -0 0.6279297 -0.7783203
vn -0 0.6279297 -0.7783203
vn -0 0.6279297 -0.7783203
vn -0 0.24035645 -0.9707031
vn -0 0.24035645 -0.9707031
vn -0 0.24035645 -0.9707031
vn -0 0.24035645 -0.9707031
vn -0 -0.39575195 -0.91845703
vn -0 -0.39575195 -0.91845703
vn -0 -0.39575195 -0.91845703
vn -0 -0.39575195 -0.91845703
vn -0 -0.88671875 -0.46191406
vn -0 -0.88671875 -0.46191406
vn -0 -0.88671875 -0.46191406
vn -0 -0.88671875 -0.46191406
vn -0 -0.9995117 0.031021118
vn -0 -0.9995117 0.031021118
vn -0 -0.9995117 0.031021118
vn -0 -0.9995117 0.031021118
vn -0 -0.8017578 0.59765625
vn -0 -0.8017578 0.59765625
vn -0 -0.8017578 0.59765625
vn -0 -0.8017578 0.59765625
vn -0 -0.3256836 0.9453125
vn -0 -0.3256836 0.9453125
vn -0 -0.3256836 0.9453125
vn -0 -0.3256836 0.9453125
vn -0 0.21716309 0.9760742
vn -0 0.21716309 0.9760742
vn -0 0.21716309 0.9760742
vn -0 0.21716309 0.9760742
vn -0 0.72558594 0.68847656
vn -0 0.72558594 0.68847656
vn -0 0.72558594 0.68847656
vn -0 0.72558594 0.68847656
vn 0.0068130493 -0.00032949448 1
vn 0.007255554 0.0006542206 1
vn 0.72216797 -0.027069092 0.69140625
vn 0.71240234 -0.009925842 0.70166016
vn 0.0079193115 -0.017089844 1
vn 0.99658203 -0.08258057 -0.018356323
vn 0.70996094 -0.0051727295 0.70458984
vn 1.1920929E-06 -1 -2.3841858E-07
vn 0.99853516 -0.054992676 0.0042648315
vn 0.6928711 -0.13269043 -0.7089844
vn 0.99902344 -0.0368042 0.015975952
vn 0.70654297 -0.11187744 -0.69873047
vn -0.0062789917 -0.15185547 -0.98828125
vn 0.71533203 -0.09649658 -0.69189453
vn -0.0090789795 -0.14477539 -0.9892578
vn -0.6972656 -0.1303711 -0.7050781
vn -0.011619568 -0.14587402 -0.9892578
vn -0.7114258 -0.13293457 -0.6904297
vn -0.99658203 -0.07751465 -0.019348145
vn -0.7182617 -0.15148926 -0.6791992
vn -0.99609375 -0.0859375 0.0044517517
vn -0.71777344 -0.021194458 0.69628906
vn -0.99316406 -0.11706543 0.014389038
vn -0.70751953 -0.031311035 0.7060547
vn 0.007255554 0.0006542206 1
vn 0.0068130493 -0.00032949448 1
vn -0.7036133 -0.0635376 0.70751953
vn 0.0079193115 -0.017089844 1
vn -0.12512207 0.14477539 0.9814453
vn -0.14868164 0.24731445 0.95751953
vn 0.39404297 0.22106934 0.89208984
vn 0.41308594 0.11779785 0.90283203
vn 0.73828125 0.19458008 0.6459961
vn 0.4423828 -0.040740967 0.8959961
vn -0.10632324 -0.009391785 0.9941406
vn -0.1083374 -0.11779785 0.9873047
vn 0.4584961 -0.14672852 0.87646484
vn 0.7607422 -0.08074951 0.64404297
vn 0.76953125 -0.18554688 0.6113281
vn 0.7441406 0.08691406 0.6621094
vn 0.88623047 0.18078613 0.42651367
vn 0.9003906 -0.09954834 0.4230957
vn 0.89453125 -0.2010498 0.3996582
vn 0.8955078 0.080444336 0.43774414
vn 0.96533203 0.18359375 0.18603516
vn 0.9741211 -0.10864258 0.19885254
vn 0.9609375 -0.20825195 0.18151855
vn 0.9760742 0.086120605 0.19909668
vn 0.8823242 0.19262695 -0.42993164
vn 0.92333984 -0.105651855 -0.36938477
vn 0.88378906 -0.20361328 -0.42114258
vn 0.90966797 0.10253906 -0.40234375
vn 0.41870117 0.17956543 -0.8901367
vn 0.5029297 -0.100097656 -0.85839844
vn 0.44360352 -0.19018555 -0.87597656
vn 0.45996094 0.10437012 -0.88183594
vn 0.105773926 0.18115234 -0.97753906
vn 0.14929199 -0.115478516 -0.9819336
vn 0.11456299 -0.1977539 -0.9736328
vn 0.124694824 0.099487305 -0.9873047
vn -0.109313965 0.18371582 -0.9770508
vn -0.12512207 -0.11767578 -0.98535156
vn -0.10644531 -0.2006836 -0.9736328
vn -0.12145996 0.10040283 -0.9873047
vn -0.42358398 0.18933105 -0.8857422
vn -0.50097656 -0.11004639 -0.85839844
vn -0.43359375 -0.20275879 -0.8779297
vn -0.46655273 0.10308838 -0.87841797
vn -0.79785156 0.1899414 -0.57177734
vn -0.85839844 -0.09313965 -0.50390625
vn -0.8129883 -0.1928711 -0.5493164
vn -0.8354492 0.10015869 -0.54003906
vn -0.9770508 0.18969727 -0.095825195
vn -0.99560547 -0.080200195 -0.05117798
vn -0.9794922 -0.18554688 -0.080200195
vn -0.99316406 0.09484863 -0.06628418
vn -0.8935547 0.19921875 0.40234375
vn -0.91503906 -0.06890869 0.39770508
vn -0.90722656 -0.17602539 0.38183594
vn -0.90771484 0.09661865 0.40844727
vn -0.7602539 0.21594238 0.6123047
vn -0.7866211 -0.04534912 0.61621094
vn -0.7895508 -0.15039062 0.59521484
vn -0.77197266 0.11328125 0.6254883
vn -0.5932617 0.23095703 0.7714844
vn -0.59765625 -0.0155181885 0.8017578
vn -0.609375 -0.11779785 0.7841797
vn -0.58984375 0.13195801 0.7963867
vn -0.14868164 0.24731445 0.95751953
vn -0.12512207 0.14477539 0.9814453
vn -0.10632324 -0.009391785 0.9941406
vn -0.1083374 -0.11779785 0.9873047
vn -0.98046875 -0.19445801 -0.0357666
vn -0.9819336 -0.18237305 -0.047454834
vn -0.9814453 -0.18469238 -0.047851562
vn -0.9746094 -0.22314453 0.002040863
vn -0.97216797 -0.23413086 0.02029419
vn -0.19799805 -0.97802734 -0.06726074
vn -0.96533203 -0.2565918 0.04864502
vn -0.96777344 -0.23803711 0.08068848
vn -0.9301758 -0.35058594 0.1104126
vn -0.94921875 -0.28173828 0.13830566
vn -0.8979492 -0.43896484 0.03463745
vn -0.9477539 -0.22521973 0.22521973
vn -0.95654297 -0.14147949 0.25561523
vn -0.8989258 -0.15148926 0.4111328
vn -0.89941406 -0.06970215 0.43139648
vn -0.7607422 -0.2084961 0.6147461
vn -0.7866211 -0.11669922 0.6064453
vn -0.5673828 -0.08770752 0.81884766
vn -0.84277344 -0.32592773 0.42822266
vn -0.89941406 -0.3779297 0.22058105
vn -0.47827148 -0.2446289 0.8432617
vn -0 -0.40527344 0.9140625
vn -0.6064453 -0.45825195 0.64941406
vn -0.90966797 -0.39404297 0.13232422
vn -0.6894531 -0.54345703 0.4790039
vn -0.103393555 -0.5546875 0.8256836
vn -0.7446289 -0.6152344 0.25756836
vn -0.7548828 -0.6347656 0.1652832
vn -0.10723877 -0.73339844 0.6713867
vn 0.103393555 -0.5546875 0.8256836
vn -0.13269043 -0.8378906 0.5292969
vn -0.82421875 -0.5498047 0.13476562
vn -0.12420654 -0.94384766 0.30615234
vn -0.09893799 -0.98779297 0.11871338
vn 0.09893799 -0.98779297 0.11871338
vn -0.03842163 -0.99902344 -0.023834229
vn 0.03842163 -0.99902344 -0.023834229
vn 0.19799805 -0.97802734 -0.06726074
vn 0.12420654 -0.94384766 0.30615234
vn 0.13269043 -0.8378906 0.5292969
vn 0.10723877 -0.73339844 0.6713867
vn 0.6064453 -0.45825195 0.64941406
vn 0.6894531 -0.54345703 0.4790039
vn 0.48217773 -0.24084473 0.84228516
vn 0.5732422 -0.085632324 0.8149414
vn 0.76220703 -0.20361328 0.6142578
vn 0.7866211 -0.111083984 0.6069336
vn 0.7446289 -0.6152344 0.25756836
vn 0.89697266 -0.1529541 0.41455078
vn 0.89453125 -0.072143555 0.4411621
vn 0.84277344 -0.32592773 0.42822266
vn 0.9477539 -0.23010254 0.22106934
vn 0.95703125 -0.14807129 0.24914551
vn 0.89941406 -0.3779297 0.22058105
vn 0.7548828 -0.6347656 0.1652832
vn 0.94970703 -0.28295898 0.13476562
vn 0.97021484 -0.23168945 0.07171631
vn 0.90966797 -0.39404297 0.13232422
vn 0.82421875 -0.5498047 0.13476562
vn 0.9301758 -0.35058594 0.1104126
vn 0.96777344 -0.24719238 0.045654297
vn 0.9741211 -0.22436523 0.02331543
vn 0.8979492 -0.43896484 0.03463745
vn 0.97509766 -0.22131348 0.0022945404
vn 0.98095703 -0.1875 -0.04675293
vn 0.97998047 -0.19677734 -0.036956787
vn 0.9814453 -0.18615723 -0.0496521
vn -0 0 -1
vn -0 0 -1
vn -0 0 -1
vn -0 0 -1
vn -0 0 -1
vn -0 0 -1
vn 0.0041160583 1 -0.0076560974
vn 0.005592346 1 -0.014839172
vn 0.005592346 1 -0.014839172
vn 0.0060806274 1 -0.005012512
vn 0.0015745163 0.9995117 0.037628174
vn -0.06958008 0.9951172 -0.06695557
vn 0.0074653625 0.99902344 0.045532227
vn 0.023620605 0.9980469 0.058441162
vn -0.015930176 1 0.009307861
vn -0.016342163 1 0.009521484
vn -0.017471313 1 0.010108948
vn -0.017471313 1 0.010108948
vn 0.005130768 0.9995117 0.02267456
vn 0.007358551 1 -0.0024032593
vn 0.008377075 1 -0.0003578663
vn 0.007911682 0.9995117 0.027954102
vn 0.00945282 0.99853516 0.056396484
vn -0 1 -3.6358833E-06
vn 0.004096985 1 -0.020477295
vn 0.004096985 1 -0.020477295
vn -0.0073776245 1 0.018112183
vn -0.0073776245 1 0.018096924
vn -0.009902954 0.99902344 -0.04800415
vn -0.009902954 0.99902344 -0.04800415
vn -0 1 7.748604E-07
vn -0.10046387 0.9951172 0.001701355
vn -0.054260254 0.99853516 0.014404297
vn -0.052947998 0.99853516 0.014762878
vn -0.049224854 0.99853516 0.015792847
vn -0.049224854 0.99853516 0.015792847
vn -0.16821289 0.98583984 0.016098022
vn -0.16821289 0.98583984 0.016098022
vn 0.0006790161 -0.07696533 -0.9970703
vn -0.12878418 0.9916992 0.010154724
vn 0.0011634827 -0.22998047 -0.97314453
vn 0.01083374 1 0.0012264252
vn 0.10668945 0.9941406 0.0076141357
vn -0.0073623657 -0.08538818 -0.99609375
vn 0.11395264 0.99316406 0.013122559
vn 0.11395264 0.99316406 0.013122559
vn -0.009414673 0.28686523 0.9580078
vn -0.057739258 0.33447266 0.9404297
vn -0.032348633 0.31396484 0.94873047
vn -0.0004892349 0.28125 0.95947266
vn 0.005947113 0.28637695 0.9580078
vn 0.032989502 0.3203125 0.94677734
vn 0.037841797 0.3244629 0.9453125
vn 0.9482422 0.26611328 0.17443848
vn 0.9482422 0.26611328 0.17443848
vn 0.9482422 0.26611328 0.17443848
vn 0.9482422 0.26611328 0.17443848
vn -0.9472656 0.2709961 0.17211914
vn -0.9472656 0.2709961 0.17211914
vn -0.9472656 0.2709961 0.17211914
vn -0.9472656 0.2709961 0.17211914
vn -0 -0.012031555 1
vn -0 -0.012031555 1
vn -0 0.03543091 0.9995117
vn -0 -0.012031555 1
vn -0 -0.012031555 1
vn -0 0.03540039 0.9995117
vn -0 0.48364258 0.8754883
vn -0 0.48364258 0.8754883
vn -1.1920929E-07 0.859375 0.51123047
vn -1.1920929E-07 0.859375 0.51123047
vn -0 0.9941406 0.1060791
vn -0 0.9941406 0.1060791
vn -0 0.8457031 -0.5336914
vn -0 0.8457031 -0.5336914
vn -0 0.39208984 -0.9199219
vn -0 0.39208984 -0.9199219
vn -0 0.057403564 -0.99853516
vn -0 0.057403564 -0.99853516
vn -0 -0.068847656 -0.9975586
vn -0 -0.068847656 -0.9975586
vn -0.00036621094 0.20910645 -0.97802734
vn -0.00036621094 0.20910645 -0.97802734
vn -0.00036621094 0.20910645 -0.97802734
vn -0.00036621094 0.20910645 -0.97802734
vn 0.96533203 0.2614746 -0.0017900467
vn 0.96533203 0.2607422 -0.0013551712
vn 0.96533203 0.2607422 -0.0013551712
vn 0.96533203 0.2607422 -0.0012168884
vn 0.96533203 0.2614746 -0.0016202927
vn 0.96484375 0.26293945 -0.0027370453
vn -0.9658203 0.26000977 -0.0022258759
vn -0.96533203 0.26049805 -0.0026168823
vn -0.9658203 0.26000977 -0.0021972656
vn -0.9658203 0.25976562 -0.0019931793
vn -0.9658203 0.25976562 -0.002040863
vn -0.9658203 0.25976562 -0.002040863
vn -0 1 -2.2649765E-06
vn -0 1 -2.2649765E-06
vn -0 1 -2.2649765E-06
vn -0 1 -2.2649765E-06
vn -0 0.9951172 -0.09802246
vn -0 0.9951172 -0.09802246
vn -0 0.9897461 0.14428711
vn -0 0.9897461 0.14416504
vn -0 0.2998047 0.95410156
vn -0 0.2998047 0.95410156
vn 0.9916992 -0.124694824 -0.033050537
vn 0.9916992 -0.124694824 -0.033050537
vn 0.99902344 -0.04071045 -0.02293396
vn 0.99902344 -0.03994751 -0.022842407
vn 0.9995117 -0.02230835 -0.010864258
vn 0.9995117 -0.02116394 -0.019515991
vn 1 -0.015197754 -0.008781433
vn 1 -0.01940918 -0.0070877075
vn 1 -0.01940918 -0.0070877075
vn -0.9916992 -0.12475586 -0.033081055
vn -0.99902344 -0.040771484 -0.02293396
vn -0.9916992 -0.12475586 -0.033081055
vn -0.99902344 -0.040008545 -0.022842407
vn -0.9995117 -0.021224976 -0.019500732
vn -0.9995117 -0.022415161 -0.010818481
vn -1 -0.015296936 -0.008728027
vn -1 -0.019515991 -0.0070228577
vn -1 -0.019515991 -0.0070228577
vn -0.005844116 -0.28637695 -0.9580078
vn -0.03656006 -0.3239746 -0.9453125
vn -0.0073623657 -0.08538818 -0.99609375
vn 0.0011634827 -0.22998047 -0.97314453
vn 0.009513855 -0.28710938 -0.9580078
vn 0.0006790161 -0.07696533 -0.9970703
vn 0.05645752 -0.33422852 -0.94091797
vn -0.57714844 -0.6713867 -0.46435547
vn -0.5258789 -0.15246582 -0.83691406
vn -0.93408203 -0.063964844 -0.35107422
vn -0.57714844 0.4645996 -0.6713867
vn -0.85058594 -0.51708984 0.09423828
vn -0.3569336 -0.9189453 0.16748047
vn -0.85058594 0.51708984 -0.09423828
vn -0.3569336 0.9189453 -0.16748047
vn -0.93408203 0.063964844 0.35107422
vn -0.57714844 -0.4645996 0.6713867
vn -0.57714844 0.6713867 0.46435547
vn -0 -0.7426758 0.6699219
vn 0.3569336 -0.9189453 0.16748047
vn -0.5258789 0.15246582 0.83691406
vn 1.7881393E-07 0.93115234 0.3647461
vn 0.3569336 0.9189453 -0.16748047
vn 2.2053719E-06 -0.18359375 0.98291016
vn -0 0.5185547 0.85498047
vn 0.57714844 -0.46435547 0.6713867
vn 0.57714844 0.6713867 0.46435547
vn 0.5258789 0.15246582 0.83691406
vn 0.93408203 0.063964844 0.35107422
vn 0.85058594 -0.51708984 0.09423828
vn 0.85058594 0.51708984 -0.09423828
vn 0.93408203 -0.063964844 -0.35107422
vn 0.57714844 -0.6713867 -0.46435547
vn 0.57714844 0.4645996 -0.6713867
vn -5.364418E-07 -0.93115234 -0.3647461
vn -0.3569336 -0.9189453 0.16748047
vn -0.57714844 -0.6713867 -0.46435547
vn -2.3841858E-07 -0.5185547 -0.85498047
vn -0.5258789 -0.15246582 -0.83691406
vn 0.5258789 -0.15246582 -0.83691406
vn -3.5762787E-07 0.18359375 -0.98291016
vn -0.57714844 0.4645996 -0.6713867
vn -1.3113022E-06 0.7426758 -0.6699219
vn -0.3569336 0.9189453 -0.16748047
vn 1 7.748604E-07 0
vn 1 2.9802322E-07 0
vn 1 -1.7881393E-07 0
vn 1 0 0
vn 1 2.8014183E-06 0
vn 1 -2.3841858E-06 0
vn 1 0 0
vn 1 0 0
vn 1 0 0
vn 1 -2.3841858E-06 0
vn 1 5.9604645E-07 0
vn 1 -1.9073486E-06 0
vn -1 -3.9339066E-06 0
vn -1 -1.9073486E-06 0
vn -1 0 0
vn -1 0 0
vn -1 1.2516975E-06 0
vn -1 0 0
vn -1 0 0
vn -1 0 0
vn -1 -2.2649765E-06 0
vn -1 3.3974648E-06 0
vn -1 -2.1457672E-06 0
vn -1 3.2186508E-06 0
vn 1 -1.3709068E-06 0
vn 1 0 0
vn 1 4.172325E-07 0
vn 1 -5.9604645E-07 0
vn 1 2.7418137E-06 0
vn 1 5.9604645E-07 0
vn 1 -5.9604645E-07 0
vn 1 0 0
vn 1 -1.3709068E-06 0
vn 1 0 0
vn 1 2.1457672E-06 0
vn 1 1.0728836E-06 0
vn -1 0 0
vn -1 0 0
vn -1 0 0
vn -1 0 0
vn -1 -3.0994415E-06 0
vn -1 2.9206276E-06 0
vn -1 -7.1525574E-07 0
vn -1 -7.748604E-07 0
vn -1 2.1457672E-06 0
vn -1 -4.1127205E-06 0
vn -1 2.3841858E-06 0
vn -1 1.3709068E-06 0
vn -1 0 0
vn -1 -5.364418E-07 0
vn -1 3.5762787E-07 0
vn -1 -4.9471855E-06 0
vn -1 3.5762787E-07 0
vn -1 -2.3841858E-07 0
vn -1 -2.9206276E-06 0
vn -1 3.695488E-06 0
vn -1 -2.4437904E-06 0
vn -1 -1.7285347E-06 0
vn -1 0 0
vn -1 -1.1920929E-06 0
vn 1 1.9669533E-06 0
vn 1 4.172325E-07 0
vn 1 -1.1324883E-06 0
vn 1 0 0
vn 1 0 0
vn 1 0 0
vn 1 2.3841858E-06 0
vn 1 0 0
vn 1 0 0
vn 1 1.1324883E-06 0
vn 1 -5.9604645E-07 0
vn 1 4.7683716E-07 0
vn -1 0 0
vn -1 -1.0728836E-06 0
vn -1 0 0
vn -1 0 0
vn -1 -1.3709068E-06 0
vn -1 -1.1324883E-06 0
vn -1 -1.66893E-06 0
vn -1 -3.33786E-06 0
vn -1 2.0861626E-06 0
vn -1 -2.1457672E-06 0
vn -1 0 0
vn -1 -2.1457672E-06 0
vn 1 -1.3113022E-06 0
vn 1 -9.536743E-07 0
vn 1 0 0
vn 1 -1.847744E-06 0
vn 1 0 0
vn 1 -3.5762787E-07 0
vn 1 -1.1324883E-06 0
vn 1 0 0
vn 1 -1.0728836E-06 0
vn 1 0 0
vn 1 -2.3841858E-06 0
vn 1 -2.4437904E-06 0
vn 0.086120605 0.25634766 0.9628906
vn 0.085876465 0.2397461 0.9667969
vn 0.08734131 0.24987793 0.96435547
vn 0.077819824 0.25146484 0.96484375
vn 0.09057617 0.23999023 0.9663086
vn 0.06756592 0.24707031 0.9667969
vn 0.09613037 0.23303223 0.96777344
vn 0.07128906 0.24523926 0.9667969
vn 0.09851074 0.23034668 0.9682617
vn 0.08154297 0.23950195 0.96728516
vn 0.08972168 0.22839355 0.9692383
vn 0.08337402 0.23217773 0.9692383
vn 0.0793457 0.22497559 0.9711914
vn 0.08001709 0.22631836 0.9707031
vn 0.45581055 -0.12298584 0.88134766
vn 0.46948242 -0.11517334 0.8754883
vn 0.46069336 -0.11883545 0.87939453
vn 0.46313477 -0.12780762 0.8769531
vn 0.4675293 -0.111206055 0.8769531
vn 0.47045898 -0.13452148 0.8720703
vn 0.47094727 -0.10290527 0.87597656
vn 0.47070312 -0.1303711 0.8725586
vn 0.4724121 -0.09954834 0.87597656
vn 0.47143555 -0.11871338 0.87402344
vn 0.47729492 -0.10620117 0.8720703
vn 0.47680664 -0.113586426 0.87158203
vn 0.484375 -0.11352539 0.8676758
vn 0.48291016 -0.113586426 0.86816406
vn 0.020111084 0.40478516 0.9140625
vn 0.003786087 0.40942383 0.91259766
vn 0.013442993 0.40527344 0.9140625
vn 0.017303467 0.41333008 0.91015625
vn 0.002790451 0.4050293 0.9140625
vn 0.015731812 0.42358398 0.9057617
vn -0.0054969788 0.40185547 0.91552734
vn 0.012916565 0.4206543 0.90722656
vn -0.008781433 0.40039062 0.9160156
vn 0.004547119 0.41308594 0.91064453
vn -0.008491516 0.4086914 0.91259766
vn -0.0030899048 0.41333008 0.91064453
vn -0.009262085 0.4189453 0.9082031
vn -0.008102417 0.41796875 0.9086914
vn -0.0289917 0.9941406 0.10223389
vn -0.054870605 0.99560547 0.07385254
vn -0.056854248 0.9941406 0.09033203
vn -0.021835327 0.9951172 0.09863281
vn -0.046447754 0.9951172 0.08496094
vn -0.02255249 0.9975586 0.06842041
vn -0.025344849 0.99609375 0.08282471
vn -0.009765625 0.9995117 0.034423828
vn -0.053131104 0.99316406 0.10235596
vn 0.008216858 1 0.0017652512
vn -0.0769043 0.9897461 0.11920166
vn -0.035095215 0.99902344 0.0181427
vn -0.07873535 0.9926758 0.09051514
vn -0.08850098 0.99560547 0.02709961
vn -0.08123779 0.99560547 0.05090332
vn -0.08886719 0.9951172 0.037597656
vn -0.034454346 -0.9980469 0.050750732
vn 0.005973816 -0.98291016 0.18444824
vn -0.07897949 -0.99609375 0.034576416
vn 0.020263672 -0.99853516 0.05291748
vn -0.08685303 -0.9951172 0.048980713
vn 0.055236816 -0.9975586 0.047698975
vn -0.101257324 -0.96728516 0.23168945
vn 0.072387695 -0.99658203 0.038879395
vn -0.13513184 -0.91259766 0.38598633
vn 0.06695557 -0.99609375 0.060455322
vn -0.14160156 -0.89941406 0.41308594
vn 0.054016113 -0.9916992 0.11627197
vn -0.048431396 -0.92822266 0.36889648
vn 0.08758545 -0.96533203 0.24621582
vn 0.09716797 -0.91796875 0.3840332
vn 0.13989258 -0.9145508 0.3791504
vn 0.35595703 -0.45947266 -0.81396484
vn 0.8071289 -0.58447266 0.08679199
vn 0.9555664 -0.2939453 0.008644104
vn 0.31054688 -0.5908203 -0.7446289
vn 0.63720703 -0.7583008 0.13879395
vn 0.36572266 -0.3112793 -0.8769531
vn 0.93603516 0.32421875 -0.13635254
vn -0.037750244 -0.21984863 -0.9746094
vn -0.016616821 -0.7446289 -0.66748047
vn 0.04953003 -0.97265625 0.22692871
vn 0.30859375 -0.08453369 -0.9472656
vn -0.38305664 -0.6640625 -0.64208984
vn 0.15600586 0.1105957 -0.9814453
vn 0.4814453 0.8457031 -0.23071289
vn -0.5551758 -0.80078125 0.22485352
vn 0.1538086 0.95947266 -0.23669434
vn -0.60839844 -0.43969727 -0.66064453
vn -0.8955078 -0.4169922 0.15563965
vn 0.040496826 0.18261719 -0.9824219
vn -0.093811035 0.97021484 -0.22351074
vn -0.64990234 -0.2697754 -0.7109375
vn -0.9848633 -0.14257812 0.09649658
vn -0.07342529 0.25024414 -0.96533203
vn -0.65625 0.7426758 -0.13391113
vn -0.6333008 -0.07543945 -0.7705078
vn -0.9824219 0.18579102 0.018661499
vn -0.3798828 0.18310547 -0.9067383
vn -0.36816406 0.5957031 -0.7138672
vn 0.1743164 0.98339844 0.050872803
vn -0.11853027 0.96972656 0.21386719
vn -0.22009277 0.61816406 -0.75439453
vn 0.3798828 0.921875 -0.074401855
vn -0.51171875 0.5332031 -0.6738281
vn -0.61621094 0.64941406 0.44580078
vn -0.50390625 0.14697266 -0.8510742
vn 0.0418396 0.40966797 -0.9111328
vn 0.7753906 0.51953125 -0.35839844
vn -0.68896484 0.37402344 -0.62060547
vn 0.12805176 0.052215576 -0.9902344
vn -0.7895508 0.1463623 -0.5961914
vn -0.87109375 0.0012617111 0.49121094
vn 0.8623047 -0.08673096 -0.49926758
vn -0.8408203 -0.33740234 0.4230957
vn 0.04269409 -0.25390625 -0.9663086
vn 0.67626953 -0.56884766 -0.46777344
vn -0.7988281 0.0107421875 -0.6010742
vn -0.75683594 -0.5566406 0.34228516
vn -0.08905029 -0.3720703 -0.9238281
vn 0.48608398 -0.7807617 -0.39257812
vn -0.7939453 -0.12261963 -0.59521484
vn -0.36035156 -0.93066406 0.06201172
vn -0.26245117 -0.45214844 -0.85253906
vn 0.21691895 -0.9394531 -0.26489258
vn -0.60839844 -0.35595703 -0.7089844
vn -0.3618164 -0.67089844 -0.64697266
vn -0.7861328 -0.5571289 0.26757812
vn -0.53759766 -0.7597656 0.36499023
vn -0.48706055 -0.57958984 -0.6533203
vn -0.9145508 -0.36499023 0.17529297
vn -0.21203613 -0.7314453 -0.6479492
vn 0.07867432 -0.8984375 0.43164062
vn 0.0035037994 -0.45629883 -0.88964844
vn -0.55859375 -0.24475098 -0.79248047
vn -0.9746094 0.20202637 -0.09698486
vn 0.031082153 -0.7495117 -0.6611328
vn -0.38891602 0.065979004 -0.9189453
vn 0.26293945 -0.6645508 -0.69970703
vn 0.7114258 -0.6333008 0.30419922
vn -0.6484375 0.68603516 -0.32958984
vn 0.9086914 -0.37597656 0.18066406
vn -0.11260986 0.21655273 -0.96972656
vn -0.18066406 0.88671875 -0.42578125
vn 0.3623047 -0.57714844 -0.7319336
vn 0.98339844 -0.16271973 0.078125
vn 0.068725586 0.203125 -0.9765625
vn 0.11364746 0.8955078 -0.43017578
vn 0.45336914 -0.48095703 -0.7504883
vn 0.9042969 0.3852539 -0.1850586
vn 0.2590332 0.13305664 -0.95654297
vn 0.43774414 0.8105469 -0.38916016
vn 0.46142578 -0.18444824 -0.8676758
g Env_BikiniBottom_Background_Assets_Boat_Purple_0
f 3/3/3 2/2/2 1/1/1
f 4/4/4 3/3/3 1/1/1
f 7/7/7 6/6/6 5/5/5
f 8/8/8 7/7/7 5/5/5
f 11/11/11 10/10/10 9/9/9
f 12/12/12 11/11/11 9/9/9
f 15/15/15 14/14/14 13/13/13
f 16/16/16 15/15/15 13/13/13
f 19/19/19 18/18/18 17/17/17
f 20/20/20 19/19/19 17/17/17
f 23/23/23 22/22/22 21/21/21
f 24/24/24 23/23/23 21/21/21
f 27/27/27 26/26/26 25/25/25
f 28/28/28 27/27/27 25/25/25
f 31/31/31 30/30/30 29/29/29
f 32/32/32 31/31/31 29/29/29
f 35/35/35 34/34/34 33/33/33
f 36/36/36 35/35/35 33/33/33
f 39/39/39 38/38/38 37/37/37
f 40/40/40 39/39/39 37/37/37
f 43/43/43 42/42/42 41/41/41
f 44/44/44 43/43/43 41/41/41
f 47/47/47 46/46/46 45/45/45
f 48/48/48 47/47/47 45/45/45
f 51/51/51 50/50/50 49/49/49
f 52/52/52 51/51/51 49/49/49
f 55/55/55 54/54/54 53/53/53
f 56/56/56 55/55/55 53/53/53
f 59/59/59 58/58/58 57/57/57
f 60/60/60 59/59/59 57/57/57
f 63/63/63 62/62/62 61/61/61
f 64/64/64 63/63/63 61/61/61
f 67/67/67 66/66/66 65/65/65
f 68/68/68 67/67/67 65/65/65
f 71/71/71 70/70/70 69/69/69
f 72/72/72 71/71/71 69/69/69
f 75/75/75 74/74/74 73/73/73
f 76/76/76 75/75/75 73/73/73
f 79/79/79 78/78/78 77/77/77
f 80/80/80 79/79/79 77/77/77
f 83/83/83 82/82/82 81/81/81
f 84/84/84 83/83/83 81/81/81
f 87/87/87 86/86/86 85/85/85
f 88/88/88 87/87/87 85/85/85
f 91/91/91 90/90/90 89/89/89
f 92/92/92 91/91/91 89/89/89
f 95/95/95 94/94/94 93/93/93
f 96/96/96 95/95/95 93/93/93
f 99/99/99 98/98/98 97/97/97
f 100/100/100 99/99/99 97/97/97
f 103/103/103 102/102/102 101/101/101
f 104/104/104 103/103/103 101/101/101
f 107/107/107 106/106/106 105/105/105
f 108/108/108 107/107/107 105/105/105
f 111/111/111 110/110/110 109/109/109
f 112/112/112 111/111/111 109/109/109
f 115/115/115 114/114/114 113/113/113
f 116/116/116 115/115/115 113/113/113
f 119/119/119 118/118/118 117/117/117
f 120/120/120 119/119/119 117/117/117
f 123/123/123 122/122/122 121/121/121
f 124/124/124 123/123/123 121/121/121
f 127/127/127 126/126/126 125/125/125
f 128/128/128 127/127/127 125/125/125
f 131/131/131 130/130/130 129/129/129
f 132/132/132 131/131/131 129/129/129
f 135/135/135 134/134/134 133/133/133
f 136/136/136 135/135/135 133/133/133
f 139/139/139 138/138/138 137/137/137
f 140/140/140 139/139/139 137/137/137
f 143/143/143 142/142/142 141/141/141
f 144/144/144 143/143/143 141/141/141
f 147/147/147 146/146/146 145/145/145
f 148/148/148 147/147/147 145/145/145
f 151/151/151 150/150/150 149/149/149
f 152/152/152 151/151/151 149/149/149
f 155/155/155 154/154/154 153/153/153
f 156/156/156 155/155/155 153/153/153
f 159/159/159 158/158/158 157/157/157
f 160/160/160 159/159/159 157/157/157
f 163/163/163 162/162/162 161/161/161
f 164/164/164 163/163/163 161/161/161
f 167/167/167 166/166/166 165/165/165
f 168/168/168 167/167/167 165/165/165
f 171/171/171 170/170/170 169/169/169
f 172/172/172 171/171/171 169/169/169
f 175/175/175 174/174/174 173/173/173
f 176/176/176 175/175/175 173/173/173
f 179/179/179 178/178/178 177/177/177
f 180/180/180 179/179/179 177/177/177
f 180/180/180 177/177/177 181/181/181
f 182/182/182 179/179/179 180/180/180
f 183/183/183 180/180/180 181/181/181
f 181/181/181 184/184/184 183/183/183
f 185/185/185 182/182/182 180/180/180
f 185/185/185 180/180/180 183/183/183
f 186/186/186 182/182/182 185/185/185
f 187/187/187 185/185/185 183/183/183
f 183/183/183 184/184/184 187/187/187
f 188/188/188 186/186/186 185/185/185
f 188/188/188 185/185/185 187/187/187
f 189/189/189 186/186/186 188/188/188
f 190/190/190 188/188/188 187/187/187
f 187/187/187 184/184/184 190/190/190
f 191/191/191 189/189/189 188/188/188
f 191/191/191 188/188/188 190/190/190
f 192/192/192 189/189/189 191/191/191
f 193/193/193 191/191/191 190/190/190
f 190/190/190 184/184/184 193/193/193
f 194/194/194 192/192/192 191/191/191
f 194/194/194 191/191/191 193/193/193
f 195/195/195 192/192/192 194/194/194
f 196/196/196 194/194/194 193/193/193
f 193/193/193 184/184/184 196/196/196
f 197/197/197 195/195/195 194/194/194
f 197/197/197 194/194/194 196/196/196
f 198/198/198 195/195/195 197/197/197
f 196/196/196 184/184/184 199/199/199
f 199/199/199 197/197/197 196/196/196
f 200/200/200 198/198/198 197/197/197
f 200/200/200 197/197/197 199/199/199
f 201/201/201 198/198/198 200/200/200
f 202/202/202 201/201/201 200/200/200
f 199/199/199 184/184/184 203/203/203
f 203/203/203 200/200/200 199/199/199
f 202/202/202 200/200/200 203/203/203
f 203/203/203 184/184/184 204/204/204
f 204/204/204 202/202/202 203/203/203
f 207/207/207 206/206/206 205/205/205
f 208/208/208 207/207/207 205/205/205
f 209/209/209 207/207/207 208/208/208
f 210/210/210 208/208/208 205/205/205
f 211/211/211 210/210/210 205/205/205
f 210/210/210 211/211/211 212/212/212
f 213/213/213 210/210/210 212/212/212
f 214/214/214 210/210/210 213/213/213
f 210/210/210 214/214/214 208/208/208
f 215/215/215 214/214/214 213/213/213
f 216/216/216 209/209/209 208/208/208
f 214/214/214 216/216/216 208/208/208
f 217/217/217 209/209/209 216/216/216
f 218/218/218 214/214/214 215/215/215
f 214/214/214 218/218/218 216/216/216
f 219/219/219 218/218/218 215/215/215
f 220/220/220 217/217/217 216/216/216
f 218/218/218 220/220/220 216/216/216
f 221/221/221 217/217/217 220/220/220
f 222/222/222 218/218/218 219/219/219
f 218/218/218 222/222/222 220/220/220
f 223/223/223 222/222/222 219/219/219
f 224/224/224 221/221/221 220/220/220
f 222/222/222 224/224/224 220/220/220
f 225/225/225 221/221/221 224/224/224
f 226/226/226 222/222/222 223/223/223
f 222/222/222 226/226/226 224/224/224
f 227/227/227 226/226/226 223/223/223
f 228/228/228 225/225/225 224/224/224
f 226/226/226 228/228/228 224/224/224
f 229/229/229 225/225/225 228/228/228
f 230/230/230 226/226/226 227/227/227
f 226/226/226 230/230/230 228/228/228
f 231/231/231 230/230/230 227/227/227
f 232/232/232 229/229/229 228/228/228
f 230/230/230 232/232/232 228/228/228
f 233/233/233 229/229/229 232/232/232
f 234/234/234 230/230/230 231/231/231
f 230/230/230 234/234/234 232/232/232
f 235/235/235 234/234/234 231/231/231
f 236/236/236 233/233/233 232/232/232
f 234/234/234 236/236/236 232/232/232
f 237/237/237 233/233/233 236/236/236
f 238/238/238 234/234/234 235/235/235
f 234/234/234 238/238/238 236/236/236
f 239/239/239 238/238/238 235/235/235
f 240/240/240 237/237/237 236/236/236
f 238/238/238 240/240/240 236/236/236
f 241/241/241 237/237/237 240/240/240
f 242/242/242 238/238/238 239/239/239
f 238/238/238 242/242/242 240/240/240
f 243/243/243 242/242/242 239/239/239
f 244/244/244 241/241/241 240/240/240
f 242/242/242 244/244/244 240/240/240
f 245/245/245 241/241/241 244/244/244
f 246/246/246 242/242/242 243/243/243
f 242/242/242 246/246/246 244/244/244
f 247/247/247 246/246/246 243/243/243
f 248/248/248 245/245/245 244/244/244
f 246/246/246 248/248/248 244/244/244
f 249/249/249 245/245/245 248/248/248
f 250/250/250 246/246/246 247/247/247
f 246/246/246 250/250/250 248/248/248
f 251/251/251 250/250/250 247/247/247
f 252/252/252 249/249/249 248/248/248
f 250/250/250 252/252/252 248/248/248
f 253/253/253 249/249/249 252/252/252
f 254/254/254 250/250/250 251/251/251
f 250/250/250 254/254/254 252/252/252
f 255/255/255 254/254/254 251/251/251
f 256/256/256 253/253/253 252/252/252
f 254/254/254 256/256/256 252/252/252
f 257/257/257 253/253/253 256/256/256
f 258/258/258 254/254/254 255/255/255
f 254/254/254 258/258/258 256/256/256
f 259/259/259 258/258/258 255/255/255
f 260/260/260 257/257/257 256/256/256
f 258/258/258 260/260/260 256/256/256
f 261/261/261 257/257/257 260/260/260
f 262/262/262 258/258/258 259/259/259
f 258/258/258 262/262/262 260/260/260
f 263/263/263 262/262/262 259/259/259
f 264/264/264 261/261/261 260/260/260
f 262/262/262 264/264/264 260/260/260
f 265/265/265 261/261/261 264/264/264
f 266/266/266 265/265/265 264/264/264
f 266/266/266 264/264/264 267/267/267
f 264/264/264 262/262/262 267/267/267
f 267/267/267 262/262/262 263/263/263
f 268/268/268 267/267/267 263/263/263
f 271/271/271 270/270/270 269/269/269
f 272/272/272 271/271/271 269/269/269
f 273/273/273 271/271/271 272/272/272
f 272/272/272 269/269/269 274/274/274
f 272/272/272 275/275/275 273/273/273
f 275/275/275 276/276/276 273/273/273
f 272/272/272 277/277/277 275/275/275
f 275/275/275 278/278/278 276/276/276
f 275/275/275 277/277/277 278/278/278
f 279/279/279 272/272/272 274/274/274
f 272/272/272 279/279/279 277/277/277
f 278/278/278 280/280/280 276/276/276
f 280/280/280 281/281/281 276/276/276
f 280/280/280 282/282/282 281/281/281
f 282/282/282 283/283/283 281/281/281
f 282/282/282 284/284/284 283/283/283
f 284/284/284 285/285/285 283/283/283
f 285/285/285 284/284/284 286/286/286
f 287/287/287 282/282/282 280/280/280
f 287/287/287 284/284/284 282/282/282
f 288/288/288 280/280/280 278/278/278
f 288/288/288 287/287/287 280/280/280
f 284/284/284 289/289/289 286/286/286
f 289/289/289 290/290/290 286/286/286
f 291/291/291 284/284/284 287/287/287
f 284/284/284 291/291/291 289/289/289
f 292/292/292 288/288/288 278/278/278
f 277/277/277 292/292/292 278/278/278
f 293/293/293 287/287/287 288/288/288
f 293/293/293 291/291/291 287/287/287
f 289/289/289 291/291/291 294/294/294
f 294/294/294 290/290/290 289/289/289
f 295/295/295 288/288/288 292/292/292
f 295/295/295 293/293/293 288/288/288
f 292/292/292 277/277/277 296/296/296
f 296/296/296 295/295/295 292/292/292
f 297/297/297 291/291/291 293/293/293
f 291/291/291 297/297/297 294/294/294
f 294/294/294 298/298/298 290/290/290
f 294/294/294 297/297/297 298/298/298
f 299/299/299 293/293/293 295/295/295
f 299/299/299 297/297/297 293/293/293
f 277/277/277 300/300/300 296/296/296
f 279/279/279 300/300/300 277/277/277
f 301/301/301 295/295/295 296/296/296
f 301/301/301 299/299/299 295/295/295
f 296/296/296 300/300/300 302/302/302
f 302/302/302 301/301/301 296/296/296
f 302/302/302 303/303/303 301/301/301
f 279/279/279 304/304/304 300/300/300
f 300/300/300 304/304/304 302/302/302
f 303/303/303 302/302/302 304/304/304
f 274/274/274 304/304/304 279/279/279
f 305/305/305 304/304/304 274/274/274
f 305/305/305 303/303/303 304/304/304
f 306/306/306 305/305/305 274/274/274
f 301/301/301 307/307/307 299/299/299
f 303/303/303 307/307/307 301/301/301
f 299/299/299 308/308/308 297/297/297
f 307/307/307 308/308/308 299/299/299
f 308/308/308 309/309/309 297/297/297
f 297/297/297 309/309/309 298/298/298
f 310/310/310 309/309/309 308/308/308
f 309/309/309 310/310/310 298/298/298
f 311/311/311 308/308/308 307/307/307
f 311/311/311 310/310/310 308/308/308
f 310/310/310 312/312/312 298/298/298
f 312/312/312 290/290/290 298/298/298
f 313/313/313 290/290/290 312/312/312
f 310/310/310 314/314/314 312/312/312
f 312/312/312 314/314/314 313/313/313
f 314/314/314 310/310/310 311/311/311
f 314/314/314 315/315/315 313/313/313
f 316/316/316 311/311/311 307/307/307
f 316/316/316 307/307/307 303/303/303
f 315/315/315 314/314/314 317/317/317
f 318/318/318 315/315/315 317/317/317
f 319/319/319 314/314/314 311/311/311
f 319/319/319 311/311/311 316/316/316
f 317/317/317 314/314/314 319/319/319
f 318/318/318 317/317/317 320/320/320
f 321/321/321 318/318/318 320/320/320
f 317/317/317 319/319/319 322/322/322
f 322/322/322 319/319/319 316/316/316
f 320/320/320 317/317/317 322/322/322
f 323/323/323 316/316/316 303/303/303
f 322/322/322 316/316/316 323/323/323
f 321/321/321 320/320/320 324/324/324
f 325/325/325 321/321/321 324/324/324
f 320/320/320 322/322/322 326/326/326
f 326/326/326 322/322/322 323/323/323
f 324/324/324 320/320/320 326/326/326
f 327/327/327 323/323/323 303/303/303
f 305/305/305 327/327/327 303/303/303
f 328/328/328 326/326/326 323/323/323
f 326/326/326 328/328/328 324/324/324
f 327/327/327 328/328/328 323/323/323
f 324/324/324 329/329/329 325/325/325
f 328/328/328 329/329/329 324/324/324
f 325/325/325 329/329/329 330/330/330
f 305/305/305 331/331/331 327/327/327
f 327/327/327 331/331/331 328/328/328
f 305/305/305 306/306/306 331/331/331
f 329/329/329 332/332/332 330/330/330
f 329/329/329 328/328/328 332/332/332
f 331/331/331 332/332/332 328/328/328
f 332/332/332 331/331/331 306/306/306
f 333/333/333 330/330/330 332/332/332
f 334/334/334 332/332/332 306/306/306
f 333/333/333 332/332/332 334/334/334
f 335/335/335 333/333/333 334/334/334
f 338/338/338 337/337/337 336/336/336
f 339/339/339 338/338/338 336/336/336
f 339/339/339 336/336/336 340/340/340
f 341/341/341 339/339/339 340/340/340
f 344/344/344 343/343/343 342/342/342
f 343/343/343 345/345/345 342/342/342
f 342/342/342 345/345/345 346/346/346
f 346/346/346 347/347/347 342/342/342
f 345/345/345 348/348/348 346/346/346
f 348/348/348 345/345/345 349/349/349
f 351/351/351 348/348/348 350/350/350
f 351/351/351 350/350/350 352/352/352
f 353/353/353 351/351/351 352/352/352
f 354/354/354 353/353/353 352/352/352
f 354/354/354 352/352/352 355/355/355
f 354/354/354 355/355/355 356/356/356
f 357/357/357 354/354/354 356/356/356
f 358/358/358 357/357/357 356/356/356
f 358/358/358 359/359/359 357/357/357
f 356/356/356 355/355/355 360/360/360
f 355/355/355 361/361/361 360/360/360
f 360/360/360 361/361/361 362/362/362
f 361/361/361 363/363/363 362/362/362
f 362/362/362 363/363/363 364/364/364
f 365/365/365 362/362/362 364/364/364
f 365/365/365 364/364/364 366/366/366
f 369/369/369 368/368/368 367/367/367
f 369/369/369 370/370/370 368/368/368
f 370/370/370 371/371/371 368/368/368
f 374/374/374 373/373/373 372/372/372
f 375/375/375 374/374/374 372/372/372
f 376/376/376 374/374/374 375/375/375
f 377/377/377 376/376/376 375/375/375
f 377/377/377 378/378/378 376/376/376
f 378/378/378 379/379/379 376/376/376
f 378/378/378 380/380/380 379/379/379
f 380/380/380 381/381/381 379/379/379
f 384/384/384 383/383/383 382/382/382
f 382/382/382 385/385/385 384/384/384
f 382/382/382 386/386/386 385/385/385
f 386/386/386 387/387/387 385/385/385
f 386/386/386 388/388/388 387/387/387
f 391/391/391 390/390/390 389/389/389
f 392/392/392 391/391/391 389/389/389
f 395/395/395 394/394/394 393/393/393
f 396/396/396 395/395/395 393/393/393
f 399/399/399 398/398/398 397/397/397
f 399/399/399 397/397/397 400/400/400
f 399/399/399 400/400/400 401/401/401
f 401/401/401 402/402/402 399/399/399
f 399/399/399 402/402/402 403/403/403
f 402/402/402 404/404/404 403/403/403
f 404/404/404 405/405/405 403/403/403
f 405/405/405 406/406/406 403/403/403
f 406/406/406 405/405/405 407/407/407
f 408/408/408 406/406/406 407/407/407
f 408/408/408 407/407/407 409/409/409
f 410/410/410 408/408/408 409/409/409
f 410/410/410 409/409/409 411/411/411
f 412/412/412 410/410/410 411/411/411
f 412/412/412 411/411/411 413/413/413
f 411/411/411 414/414/414 413/413/413
f 413/413/413 414/414/414 415/415/415
f 416/416/416 413/413/413 415/415/415
f 419/419/419 418/418/418 417/417/417
f 420/420/420 419/419/419 417/417/417
f 423/423/423 422/422/422 421/421/421
f 424/424/424 423/423/423 421/421/421
f 424/424/424 421/421/421 425/425/425
f 421/421/421 426/426/426 425/425/425
f 429/429/429 428/428/428 427/427/427
f 430/430/430 429/429/429 427/427/427
f 431/431/431 430/430/430 427/427/427
f 432/432/432 431/431/431 427/427/427
f 435/435/435 434/434/434 433/433/433
f 436/436/436 435/435/435 433/433/433
f 439/439/439 438/438/438 437/437/437
f 440/440/440 439/439/439 437/437/437
f 439/439/439 440/440/440 441/441/441
f 442/442/442 439/439/439 441/441/441
f 445/445/445 444/444/444 443/443/443
f 446/446/446 445/445/445 443/443/443
f 446/446/446 447/447/447 445/445/445
f 447/447/447 448/448/448 445/445/445
f 447/447/447 449/449/449 448/448/448
f 447/447/447 450/450/450 449/449/449
f 450/450/450 451/451/451 449/449/449
f 454/454/454 453/453/453 452/452/452
f 453/453/453 455/455/455 452/452/452
f 453/453/453 456/456/456 455/455/455
f 456/456/456 457/457/457 455/455/455
f 456/456/456 458/458/458 457/457/457
f 458/458/458 459/459/459 457/457/457
f 459/459/459 460/460/460 457/457/457
f 463/463/463 462/462/462 461/461/461
f 464/464/464 463/463/463 461/461/461
f 465/465/465 464/464/464 461/461/461
f 465/465/465 466/466/466 464/464/464
f 465/465/465 467/467/467 466/466/466
f 470/470/470 469/469/469 468/468/468
f 471/471/471 469/469/469 470/470/470
f 468/468/468 472/472/472 470/470/470
f 473/473/473 472/472/472 468/468/468
f 470/470/470 474/474/474 471/471/471
f 471/471/471 474/474/474 475/475/475
f 470/470/470 472/472/472 476/476/476
f 476/476/476 474/474/474 470/470/470
f 477/477/477 472/472/472 473/473/473
f 476/476/476 472/472/472 477/477/477
f 475/475/475 474/474/474 478/478/478
f 478/478/478 474/474/474 476/476/476
f 473/473/473 479/479/479 477/477/477
f 480/480/480 479/479/479 473/473/473
f 477/477/477 481/481/481 476/476/476
f 476/476/476 481/481/481 478/478/478
f 478/478/478 482/482/482 475/475/475
f 475/475/475 482/482/482 483/483/483
f 477/477/477 479/479/479 484/484/484
f 484/484/484 481/481/481 477/477/477
f 478/478/478 481/481/481 485/485/485
f 485/485/485 482/482/482 478/478/478
f 485/485/485 481/481/481 484/484/484
f 484/484/484 479/479/479 486/486/486
f 486/486/486 479/479/479 480/480/480
f 487/487/487 482/482/482 485/485/485
f 483/483/483 482/482/482 487/487/487
f 484/484/484 488/488/488 485/485/485
f 486/486/486 488/488/488 484/484/484
f 485/485/485 488/488/488 487/487/487
f 489/489/489 488/488/488 486/486/486
f 487/487/487 488/488/488 489/489/489
f 480/480/480 490/490/490 486/486/486
f 486/486/486 490/490/490 489/489/489
f 489/489/489 491/491/491 487/487/487
f 487/487/487 491/491/491 483/483/483
f 489/489/489 490/490/490 492/492/492
f 492/492/492 491/491/491 489/489/489
f 493/493/493 490/490/490 480/480/480
f 492/492/492 490/490/490 493/493/493
f 483/483/483 491/491/491 494/494/494
f 494/494/494 491/491/491 492/492/492
f 480/480/480 495/495/495 493/493/493
f 496/496/496 495/495/495 480/480/480
f 497/497/497 495/495/495 496/496/496
f 498/498/498 495/495/495 497/497/497
f 493/493/493 495/495/495 498/498/498
f 497/497/497 499/499/499 498/498/498
f 493/493/493 500/500/500 492/492/492
f 498/498/498 500/500/500 493/493/493
f 492/492/492 500/500/500 494/494/494
f 498/498/498 499/499/499 501/501/501
f 501/501/501 500/500/500 498/498/498
f 494/494/494 500/500/500 501/501/501
f 501/501/501 499/499/499 502/502/502
f 494/494/494 503/503/503 483/483/483
f 501/501/501 503/503/503 494/494/494
f 502/502/502 503/503/503 501/501/501
f 483/483/483 503/503/503 504/504/504
f 504/504/504 503/503/503 502/502/502
f 507/507/507 506/506/506 505/505/505
f 507/507/507 505/505/505 508/508/508
f 507/507/507 509/509/509 506/506/506
f 507/507/507 508/508/508 510/510/510
f 507/507/507 511/511/511 509/509/509
f 507/507/507 510/510/510 512/512/512
f 507/507/507 513/513/513 511/511/511
f 507/507/507 512/512/512 514/514/514
f 507/507/507 515/515/515 513/513/513
f 507/507/507 514/514/514 516/516/516
f 507/507/507 516/516/516 515/515/515
f 519/519/519 518/518/518 517/517/517
f 519/519/519 517/517/517 520/520/520
f 519/519/519 521/521/521 518/518/518
f 519/519/519 520/520/520 522/522/522
f 519/519/519 523/523/523 521/521/521
f 519/519/519 522/522/522 524/524/524
f 519/519/519 525/525/525 523/523/523
f 519/519/519 524/524/524 526/526/526
f 519/519/519 527/527/527 525/525/525
f 519/519/519 526/526/526 528/528/528
f 519/519/519 528/528/528 527/527/527
f 531/531/531 530/530/530 529/529/529
f 531/531/531 529/529/529 532/532/532
f 531/531/531 533/533/533 530/530/530
f 531/531/531 532/532/532 534/534/534
f 531/531/531 535/535/535 533/533/533
f 531/531/531 534/534/534 536/536/536
f 531/531/531 537/537/537 535/535/535
f 531/531/531 536/536/536 538/538/538
f 531/531/531 539/539/539 537/537/537
f 531/531/531 538/538/538 540/540/540
f 531/531/531 540/540/540 539/539/539
f 543/543/543 542/542/542 541/541/541
f 543/543/543 541/541/541 544/544/544
f 543/543/543 545/545/545 542/542/542
f 543/543/543 544/544/544 546/546/546
f 543/543/543 547/547/547 545/545/545
f 543/543/543 546/546/546 548/548/548
f 543/543/543 549/549/549 547/547/547
f 543/543/543 548/548/548 550/550/550
f 543/543/543 551/551/551 549/549/549
f 543/543/543 550/550/550 552/552/552
f 543/543/543 552/552/552 551/551/551
f 555/555/555 554/554/554 553/553/553
f 553/553/553 554/554/554 556/556/556
f 557/557/557 554/554/554 555/555/555
f 556/556/556 554/554/554 558/558/558
f 559/559/559 554/554/554 557/557/557
f 558/558/558 554/554/554 560/560/560
f 561/561/561 554/554/554 559/559/559
f 560/560/560 554/554/554 562/562/562
f 563/563/563 554/554/554 561/561/561
f 562/562/562 554/554/554 564/564/564
f 564/564/564 554/554/554 563/563/563
f 567/567/567 566/566/566 565/565/565
f 565/565/565 566/566/566 568/568/568
f 569/569/569 566/566/566 567/567/567
f 568/568/568 566/566/566 570/570/570
f 571/571/571 566/566/566 569/569/569
f 570/570/570 566/566/566 572/572/572
f 573/573/573 566/566/566 571/571/571
f 572/572/572 566/566/566 574/574/574
f 575/575/575 566/566/566 573/573/573
f 574/574/574 566/566/566 576/576/576
f 576/576/576 566/566/566 575/575/575
f 579/579/579 578/578/578 577/577/577
f 577/577/577 578/578/578 580/580/580
f 581/581/581 578/578/578 579/579/579
f 580/580/580 578/578/578 582/582/582
f 583/583/583 578/578/578 581/581/581
f 582/582/582 578/578/578 584/584/584
f 585/585/585 578/578/578 583/583/583
f 584/584/584 578/578/578 586/586/586
f 587/587/587 578/578/578 585/585/585
f 586/586/586 578/578/578 588/588/588
f 588/588/588 578/578/578 587/587/587
f 591/591/591 590/590/590 589/589/589
f 589/589/589 590/590/590 592/592/592
f 593/593/593 590/590/590 591/591/591
f 592/592/592 590/590/590 594/594/594
f 595/595/595 590/590/590 593/593/593
f 594/594/594 590/590/590 596/596/596
f 597/597/597 590/590/590 595/595/595
f 596/596/596 590/590/590 598/598/598
f 599/599/599 590/590/590 597/597/597
f 598/598/598 590/590/590 600/600/600
f 600/600/600 590/590/590 599/599/599
f 603/603/603 602/602/602 601/601/601
f 601/601/601 602/602/602 604/604/604
f 605/605/605 602/602/602 603/603/603
f 604/604/604 602/602/602 606/606/606
f 607/607/607 602/602/602 605/605/605
f 606/606/606 602/602/602 608/608/608
f 609/609/609 602/602/602 607/607/607
f 608/608/608 602/602/602 610/610/610
f 611/611/611 602/602/602 609/609/609
f 610/610/610 602/602/602 612/612/612
f 613/613/613 602/602/602 611/611/611
f 612/612/612 602/602/602 614/614/614
f 614/614/614 602/602/602 613/613/613
f 617/617/617 616/616/616 615/615/615
f 615/615/615 616/616/616 618/618/618
f 619/619/619 616/616/616 617/617/617
f 618/618/618 616/616/616 620/620/620
f 621/621/621 616/616/616 619/619/619
f 620/620/620 616/616/616 622/622/622
f 623/623/623 616/616/616 621/621/621
f 622/622/622 616/616/616 624/624/624
f 625/625/625 616/616/616 623/623/623
f 624/624/624 616/616/616 626/626/626
f 627/627/627 616/616/616 625/625/625
f 626/626/626 616/616/616 628/628/628
f 628/628/628 616/616/616 627/627/627
f 631/631/631 630/630/630 629/629/629
f 629/629/629 630/630/630 632/632/632
f 633/633/633 630/630/630 631/631/631
f 632/632/632 630/630/630 634/634/634
f 635/635/635 630/630/630 633/633/633
f 634/634/634 630/630/630 636/636/636
f 637/637/637 630/630/630 635/635/635
f 636/636/636 630/630/630 638/638/638
f 639/639/639 630/630/630 637/637/637
f 638/638/638 630/630/630 640/640/640
f 641/641/641 630/630/630 639/639/639
f 640/640/640 630/630/630 642/642/642
f 642/642/642 630/630/630 641/641/641
f 645/645/645 644/644/644 643/643/643
f 643/643/643 644/644/644 646/646/646
f 647/647/647 644/644/644 645/645/645
f 646/646/646 644/644/644 648/648/648
f 649/649/649 644/644/644 647/647/647
f 648/648/648 644/644/644 650/650/650
f 651/651/651 644/644/644 649/649/649
f 650/650/650 644/644/644 652/652/652
f 653/653/653 644/644/644 651/651/651
f 652/652/652 644/644/644 654/654/654
f 655/655/655 644/644/644 653/653/653
f 654/654/654 644/644/644 656/656/656
f 657/657/657 644/644/644 655/655/655
f 656/656/656 644/644/644 658/658/658
f 658/658/658 644/644/644 657/657/657
f 661/661/661 660/660/660 659/659/659
f 659/659/659 660/660/660 662/662/662
f 663/663/663 660/660/660 661/661/661
f 662/662/662 660/660/660 664/664/664
f 665/665/665 660/660/660 663/663/663
f 664/664/664 660/660/660 666/666/666
f 667/667/667 660/660/660 665/665/665
f 666/666/666 660/660/660 668/668/668
f 669/669/669 660/660/660 667/667/667
f 668/668/668 660/660/660 670/670/670
f 671/671/671 660/660/660 669/669/669
f 670/670/670 660/660/660 672/672/672
f 673/673/673 660/660/660 671/671/671
f 672/672/672 660/660/660 674/674/674
f 674/674/674 660/660/660 673/673/673
f 677/677/677 676/676/676 675/675/675
f 675/675/675 676/676/676 678/678/678
f 676/676/676 679/679/679 678/678/678
f 680/680/680 677/677/677 675/675/675
f 681/681/681 677/677/677 680/680/680
f 682/682/682 675/675/675 678/678/678
f 682/682/682 680/680/680 675/675/675
f 678/678/678 679/679/679 683/683/683
f 682/682/682 678/678/678 683/683/683
f 679/679/679 684/684/684 683/683/683
f 685/685/685 681/681/681 680/680/680
f 682/682/682 685/685/685 680/680/680
f 682/682/682 683/683/683 686/686/686
f 683/683/683 684/684/684 686/686/686
f 682/682/682 687/687/687 685/685/685
f 688/688/688 681/681/681 685/685/685
f 687/687/687 688/688/688 685/685/685
f 684/684/684 689/689/689 686/686/686
f 690/690/690 688/688/688 687/687/687
f 686/686/686 689/689/689 691/691/691
f 682/682/682 686/686/686 691/691/691
f 689/689/689 692/692/692 691/691/691
f 693/693/693 690/690/690 687/687/687
f 682/682/682 693/693/693 687/687/687
f 694/694/694 690/690/690 693/693/693
f 691/691/691 692/692/692 695/695/695
f 682/682/682 691/691/691 695/695/695
f 692/692/692 696/696/696 695/695/695
f 697/697/697 694/694/694 693/693/693
f 682/682/682 697/697/697 693/693/693
f 698/698/698 694/694/694 697/697/697
f 695/695/695 696/696/696 699/699/699
f 682/682/682 695/695/695 699/699/699
f 696/696/696 700/700/700 699/699/699
f 682/682/682 701/701/701 697/697/697
f 701/701/701 698/698/698 697/697/697
f 682/682/682 699/699/699 701/701/701
f 700/700/700 698/698/698 701/701/701
f 699/699/699 700/700/700 701/701/701
f 704/704/704 703/703/703 702/702/702
f 702/702/702 703/703/703 705/705/705
f 703/703/703 706/706/706 705/705/705
f 707/707/707 704/704/704 702/702/702
f 708/708/708 704/704/704 707/707/707
f 709/709/709 702/702/702 705/705/705
f 709/709/709 707/707/707 702/702/702
f 705/705/705 706/706/706 710/710/710
f 709/709/709 705/705/705 710/710/710
f 706/706/706 711/711/711 710/710/710
f 712/712/712 708/708/708 707/707/707
f 709/709/709 712/712/712 707/707/707
f 709/709/709 710/710/710 713/713/713
f 710/710/710 711/711/711 713/713/713
f 709/709/709 714/714/714 712/712/712
f 715/715/715 708/708/708 712/712/712
f 714/714/714 715/715/715 712/712/712
f 711/711/711 716/716/716 713/713/713
f 717/717/717 715/715/715 714/714/714
f 713/713/713 716/716/716 718/718/718
f 709/709/709 713/713/713 718/718/718
f 716/716/716 719/719/719 718/718/718
f 720/720/720 717/717/717 714/714/714
f 709/709/709 720/720/720 714/714/714
f 721/721/721 717/717/717 720/720/720
f 718/718/718 719/719/719 722/722/722
f 709/709/709 718/718/718 722/722/722
f 719/719/719 723/723/723 722/722/722
f 724/724/724 721/721/721 720/720/720
f 709/709/709 724/724/724 720/720/720
f 725/725/725 721/721/721 724/724/724
f 722/722/722 723/723/723 726/726/726
f 709/709/709 722/722/722 726/726/726
f 723/723/723 727/727/727 726/726/726
f 709/709/709 728/728/728 724/724/724
f 728/728/728 725/725/725 724/724/724
f 709/709/709 726/726/726 728/728/728
f 727/727/727 725/725/725 728/728/728
f 726/726/726 727/727/727 728/728/728
f 731/731/731 730/730/730 729/729/729
f 729/729/729 730/730/730 732/732/732
f 730/730/730 733/733/733 732/732/732
f 734/734/734 731/731/731 729/729/729
f 735/735/735 731/731/731 734/734/734
f 736/736/736 729/729/729 732/732/732
f 736/736/736 734/734/734 729/729/729
f 732/732/732 733/733/733 737/737/737
f 736/736/736 732/732/732 737/737/737
f 733/733/733 738/738/738 737/737/737
f 739/739/739 735/735/735 734/734/734
f 736/736/736 739/739/739 734/734/734
f 736/736/736 737/737/737 740/740/740
f 737/737/737 738/738/738 740/740/740
f 736/736/736 741/741/741 739/739/739
f 742/742/742 735/735/735 739/739/739
f 741/741/741 742/742/742 739/739/739
f 738/738/738 743/743/743 740/740/740
f 744/744/744 742/742/742 741/741/741
f 740/740/740 743/743/743 745/745/745
f 736/736/736 740/740/740 745/745/745
f 743/743/743 746/746/746 745/745/745
f 747/747/747 744/744/744 741/741/741
f 736/736/736 747/747/747 741/741/741
f 748/748/748 744/744/744 747/747/747
f 745/745/745 746/746/746 749/749/749
f 736/736/736 745/745/745 749/749/749
f 746/746/746 750/750/750 749/749/749
f 751/751/751 748/748/748 747/747/747
f 736/736/736 751/751/751 747/747/747
f 752/752/752 748/748/748 751/751/751
f 749/749/749 750/750/750 753/753/753
f 736/736/736 749/749/749 753/753/753
f 750/750/750 754/754/754 753/753/753
f 736/736/736 755/755/755 751/751/751
f 755/755/755 752/752/752 751/751/751
f 736/736/736 753/753/753 755/755/755
f 754/754/754 752/752/752 755/755/755
f 753/753/753 754/754/754 755/755/755
